<svg width="1600" height="1153" viewBox="20.0 -6.0 626.0 451.2" xmlns="http://www.w3.org/2000/svg" xmlns:c2pa="http://c2pa.org/manifest"><metadata><c2pa:manifest>AAAWgmp1bWIAAAAeanVtZGMycGEAEQAQgAAAqgA4m3EDYzJwYQAAABZcanVtYgAAAEdqdW1kYzJtYQARABCAAACqADibcQN1cm46YzJwYTo4N2E3MzI1OC1lYTEyLTQ1YTctODBkNi1lZDUwZmMzNmViMjAAAAADl2p1bWIAAAApanVtZGMyYXMAEQAQgAAAqgA4m3EDYzJwYS5hc3NlcnRpb25zAAAAALxqdW1iAAAARGp1bWRjYm9yABEAEIAAAKoAOJtxE2MycGEuaW5ncmVkaWVudC52MwAAAAAYYzJzaF+ystBKTSPIaaUTcePxqxcAAABwY2JvcqNpZGM6Zm9ybWF0bWltYWdlL3N2Zyt4bWxqaW5zdGFuY2VJRHgseG1wOmlpZDo4M2QyNmJjNC02NGZjLTRkYzQtYjI1MC0yZWM1MTFlYzE5MWNscmVsYXRpb25zaGlwaHBhcmVudE9mAAAB4mp1bWIAAABBanVtZGNib3IAEQAQgAAAqgA4m3ETYzJwYS5hY3Rpb25zLnYyAAAAABhjMnNo2FgLsBikqcxaAuD3GidNHAAAAZljYm9yomdhY3Rpb25zgqJmYWN0aW9ua2MycGEub3BlbmVkanBhcmFtZXRlcnOha2luZ3JlZGllbnRzgaJjdXJseC1zZWxmI2p1bWJmPWMycGEuYXNzZXJ0aW9ucy9jMnBhLmluZ3JlZGllbnQudjNkaGFzaFggnQw73ncrCmNPOJip7qG8DUeS/G3ubWm/vQRsj2ge/m6kZmFjdGlvbngdY29tLmFudGhyb3BpYy5jbGF1ZGUucHJvdmlkZWRqcGFyYW1ldGVyc6F4H2NvbS5hbnRocm9waWMub3JpZ2luLWNvbmZpZGVuY2VndW5rbm93bmtkZXNjcmlwdGlvbnhmQ2xhdWRlIHByb3ZpZGVkIHRoaXMgZmlsZSBhdCB0aGUgcmVxdWVzdCBvZiBhIHVzZXIgYW5kIG1heSBoYXZlIGNyZWF0ZWQgb3IgbW9kaWZpZWQgdGhlIGZpbGUgY29udGVudHMubXNvZnR3YXJlQWdlbnShZG5hbWVmQ2xhdWRlcmFsbEFjdGlvbnNJbmNsdWRlZPUAAADIanVtYgAAAEBqdW1kY2JvcgARABCAAACqADibcRNjMnBhLmhhc2guZGF0YQAAAAAYYzJzaI7UYegvir9d7wrqr7ZnPJsAAACAY2JvcqVjYWxnZnNoYTI1NmNwYWRNAAAAAAAAAAAAAAAAAGRoYXNoWCB9/DH7Gk0v+NKIkvpXISxajzToqN0aKfQ4UaUbTF8nTGRuYW1lbmp1bWJmIG1hbmlmZXN0amV4Y2x1c2lvbnOBomVzdGFydBiiZmxlbmd0aBkeBAAAAj5qdW1iAAAAJ2p1bWRjMmNsABEAEIAAAKoAOJtxA2MycGEuY2xhaW0udjIAAAACD2Nib3KlY2FsZ2ZzaGEyNTZpc2lnbmF0dXJleE1zZWxmI2p1bWJmPS9jMnBhL3VybjpjMnBhOjg3YTczMjU4LWVhMTItNDVhNy04MGQ2LWVkNTBmYzM2ZWIyMC9jMnBhLnNpZ25hdHVyZWppbnN0YW5jZUlEeCx4bXA6aWlkOjk4YzM0ZTY3LTNjZDItNDIyYy05OGQ0LTAzYmJjNWJkM2I5ZnJjcmVhdGVkX2Fzc2VydGlvbnODomN1cmx4LXNlbGYjanVtYmY9YzJwYS5hc3NlcnRpb25zL2MycGEuaW5ncmVkaWVudC52M2RoYXNoWCCdDDvedysKY084mKnuobwNR5L8be5tab+9BGyPaB7+bqJjdXJseCpzZWxmI2p1bWJmPWMycGEuYXNzZXJ0aW9ucy9jMnBhLmFjdGlvbnMudjJkaGFzaFggISBgeVY3demsvLBj+7ront3Li6IXCIG/8gPpMyw23S2iY3VybHgpc2VsZiNqdW1iZj1jMnBhLmFzc2VydGlvbnMvYzJwYS5oYXNoLmRhdGFkaGFzaFggOt3eNWHGPquO0ZfFZimhc9ASOnHXBbM06id6Wnu9cY10Y2xhaW1fZ2VuZXJhdG9yX2luZm+jZG5hbWVvQW50aHJvcGljIEZpbGVzZ3ZlcnNpb25lMS4wLjBrc3BlY1ZlcnNpb25lMi40LjAAABA4anVtYgAAAChqdW1kYzJjcwARABCAAACqADibcQNjMnBhLnNpZ25hdHVyZQAAABAIY2JvctKEWQISogEmGCFZAgowggIGMIIBjaADAgECAhRA5aAK7sI50L64g/oGQgU9Z1UTADAKBggqhkjOPQQDAzBJMRcwFQYDVQQKEw5BbnRocm9waWMsIFBCQzEuMCwGA1UEAxMlQW50aHJvcGljIENvbnRlbnQgQ3JlZGVudGlhbHMgUm9vdCBDQTAeFw0yNjA4MDcxODQzNTZaFw0yODA4MDYxOTQzNTZaMEQxFzAVBgNVBAoTDkFudGhyb3BpYywgUEJDMSkwJwYDVQQDEyBBbnRocm9waWMgQ2xhdWRlIENvbnRlbnQgU2lnbmluZzBZMBMGByqGSM49AgEGCCqGSM49AwEHA0IABJh6CmvLUBgFFNU0vUKlOVtE6djd17L5SuwX0LemFisBM3dkd/3cyjxFA3Qo5S46fX0/ihY0VZ7mfb9KF703t5OjWDBWMA4GA1UdDwEB/wQEAwIHgDAVBgNVHSUEDjAMBgorBgEEAYPoXgIBMAwGA1UdEwEB/wQCMAAwHwYDVR0jBBgwFoAUzlHiBIFOZFsj+OPEz5o+nMHXXMIwCgYIKoZIzj0EAwMDZwAwZAIwMXMdFJ4BetLLVY7ORuE9noqbbAZOZn/aArXyTwFAZfKrPzxF2vPoJNf1+UCdg1XGAjBwX1zd9WGqYkqmL5SFqw1QySjr1zJfpJM9+1rdDwSPLMOPOjKuiXjoU/pUUeG9RwmhY3BhZFkNngAAAAAAAAAAAAAAAAAAAAAAAAAAAAAAAAAAAAAAAAAAAAAAAAAAAAAAAAAAAAAAAAAAAAAAAAAAAAAAAAAAAAAAAAAAAAAAAAAAAAAAAAAAAAAAAAAAAAAAAAAAAAAAAAAAAAAAAAAAAAAAAAAAAAAAAAAAAAAAAAAAAAAAAAAAAAAAAAAAAAAAAAAAAAAAAAAAAAAAAAAAAAAAAAAAAAAAAAAAAAAAAAAAAAAAAAAAAAAAAAAAAAAAAAAAAAAAAAAAAAAAAAAAAAAAAAAAAAAAAAAAAAAAAAAAAAAAAAAAAAAAAAAAAAAAAAAAAAAAAAAAAAAAAAAAAAAAAAAAAAAAAAAAAAAAAAAAAAAAAAAAAAAAAAAAAAAAAAAAAAAAAAAAAAAAAAAAAAAAAAAAAAAAAAAAAAAAAAAAAAAAAAAAAAAAAAAAAAAAAAAAAAAAAAAAAAAAAAAAAAAAAAAAAAAAAAAAAAAAAAAAAAAAAAAAAAAAAAAAAAAAAAAAAAAAAAAAAAAAAAAAAAAAAAAAAAAAAAAAAAAAAAAAAAAAAAAAAAAAAAAAAAAAAAAAAAAAAAAAAAAAAAAAAAAAAAAAAAAAAAAAAAAAAAAAAAAAAAAAAAAAAAAAAAAAAAAAAAAAAAAAAAAAAAAAAAAAAAAAAAAAAAAAAAAAAAAAAAAAAAAAAAAAAAAAAAAAAAAAAAAAAAAAAAAAAAAAAAAAAAAAAAAAAAAAAAAAAAAAAAAAAAAAAAAAAAAAAAAAAAAAAAAAAAAAAAAAAAAAAAAAAAAAAAAAAAAAAAAAAAAAAAAAAAAAAAAAAAAAAAAAAAAAAAAAAAAAAAAAAAAAAAAAAAAAAAAAAAAAAAAAAAAAAAAAAAAAAAAAAAAAAAAAAAAAAAAAAAAAAAAAAAAAAAAAAAAAAAAAAAAAAAAAAAAAAAAAAAAAAAAAAAAAAAAAAAAAAAAAAAAAAAAAAAAAAAAAAAAAAAAAAAAAAAAAAAAAAAAAAAAAAAAAAAAAAAAAAAAAAAAAAAAAAAAAAAAAAAAAAAAAAAAAAAAAAAAAAAAAAAAAAAAAAAAAAAAAAAAAAAAAAAAAAAAAAAAAAAAAAAAAAAAAAAAAAAAAAAAAAAAAAAAAAAAAAAAAAAAAAAAAAAAAAAAAAAAAAAAAAAAAAAAAAAAAAAAAAAAAAAAAAAAAAAAAAAAAAAAAAAAAAAAAAAAAAAAAAAAAAAAAAAAAAAAAAAAAAAAAAAAAAAAAAAAAAAAAAAAAAAAAAAAAAAAAAAAAAAAAAAAAAAAAAAAAAAAAAAAAAAAAAAAAAAAAAAAAAAAAAAAAAAAAAAAAAAAAAAAAAAAAAAAAAAAAAAAAAAAAAAAAAAAAAAAAAAAAAAAAAAAAAAAAAAAAAAAAAAAAAAAAAAAAAAAAAAAAAAAAAAAAAAAAAAAAAAAAAAAAAAAAAAAAAAAAAAAAAAAAAAAAAAAAAAAAAAAAAAAAAAAAAAAAAAAAAAAAAAAAAAAAAAAAAAAAAAAAAAAAAAAAAAAAAAAAAAAAAAAAAAAAAAAAAAAAAAAAAAAAAAAAAAAAAAAAAAAAAAAAAAAAAAAAAAAAAAAAAAAAAAAAAAAAAAAAAAAAAAAAAAAAAAAAAAAAAAAAAAAAAAAAAAAAAAAAAAAAAAAAAAAAAAAAAAAAAAAAAAAAAAAAAAAAAAAAAAAAAAAAAAAAAAAAAAAAAAAAAAAAAAAAAAAAAAAAAAAAAAAAAAAAAAAAAAAAAAAAAAAAAAAAAAAAAAAAAAAAAAAAAAAAAAAAAAAAAAAAAAAAAAAAAAAAAAAAAAAAAAAAAAAAAAAAAAAAAAAAAAAAAAAAAAAAAAAAAAAAAAAAAAAAAAAAAAAAAAAAAAAAAAAAAAAAAAAAAAAAAAAAAAAAAAAAAAAAAAAAAAAAAAAAAAAAAAAAAAAAAAAAAAAAAAAAAAAAAAAAAAAAAAAAAAAAAAAAAAAAAAAAAAAAAAAAAAAAAAAAAAAAAAAAAAAAAAAAAAAAAAAAAAAAAAAAAAAAAAAAAAAAAAAAAAAAAAAAAAAAAAAAAAAAAAAAAAAAAAAAAAAAAAAAAAAAAAAAAAAAAAAAAAAAAAAAAAAAAAAAAAAAAAAAAAAAAAAAAAAAAAAAAAAAAAAAAAAAAAAAAAAAAAAAAAAAAAAAAAAAAAAAAAAAAAAAAAAAAAAAAAAAAAAAAAAAAAAAAAAAAAAAAAAAAAAAAAAAAAAAAAAAAAAAAAAAAAAAAAAAAAAAAAAAAAAAAAAAAAAAAAAAAAAAAAAAAAAAAAAAAAAAAAAAAAAAAAAAAAAAAAAAAAAAAAAAAAAAAAAAAAAAAAAAAAAAAAAAAAAAAAAAAAAAAAAAAAAAAAAAAAAAAAAAAAAAAAAAAAAAAAAAAAAAAAAAAAAAAAAAAAAAAAAAAAAAAAAAAAAAAAAAAAAAAAAAAAAAAAAAAAAAAAAAAAAAAAAAAAAAAAAAAAAAAAAAAAAAAAAAAAAAAAAAAAAAAAAAAAAAAAAAAAAAAAAAAAAAAAAAAAAAAAAAAAAAAAAAAAAAAAAAAAAAAAAAAAAAAAAAAAAAAAAAAAAAAAAAAAAAAAAAAAAAAAAAAAAAAAAAAAAAAAAAAAAAAAAAAAAAAAAAAAAAAAAAAAAAAAAAAAAAAAAAAAAAAAAAAAAAAAAAAAAAAAAAAAAAAAAAAAAAAAAAAAAAAAAAAAAAAAAAAAAAAAAAAAAAAAAAAAAAAAAAAAAAAAAAAAAAAAAAAAAAAAAAAAAAAAAAAAAAAAAAAAAAAAAAAAAAAAAAAAAAAAAAAAAAAAAAAAAAAAAAAAAAAAAAAAAAAAAAAAAAAAAAAAAAAAAAAAAAAAAAAAAAAAAAAAAAAAAAAAAAAAAAAAAAAAAAAAAAAAAAAAAAAAAAAAAAAAAAAAAAAAAAAAAAAAAAAAAAAAAAAAAAAAAAAAAAAAAAAAAAAAAAAAAAAAAAAAAAAAAAAAAAAAAAAAAAAAAAAAAAAAAAAAAAAAAAAAAAAAAAAAAAAAAAAAAAAAAAAAAAAAAAAAAAAAAAAAAAAAAAAAAAAAAAAAAAAAAAAAAAAAAAAAAAAAAAAAAAAAAAAAAAAAAAAAAAAAAAAAAAAAAAAAAAAAAAAAAAAAAAAAAAAAAAAAAAAAAAAAAAAAAAAAAAAAAAAAAAAAAAAAAAAAAAAAAAAAAAAAAAAAAAAAAAAAAAAAAAAAAAAAAAAAAAAAAAAAAAAAAAAAAAAAAAAAAAAAAAAAAAAAAAAAAAAAAAAAAAAAAAAAAAAAAAAAAAAAAAAAAAAAAAAAAAAAAAAAAAAAAAAAAAAAAAAAAAAAAAAAAAAAAAAAAAAAAAAAAAAAAAAAAAAAAAAAAAAAAAAAAAAAAAAAAAAAAAAAAAAAAAAAAAAAAAAAAAAAAAAAAAAAAAAAAAAAAAAAAAAAAAAAAAAAAAAAAAAAAAAAAAAAAAAAAAAAAAAAAAAAAAAAAAAAAAAAAAAAAAAAAAAAAAAAAAAAAAAAAAAAAAAAAAAAAAAAAAAAAAAAAAAAAAAAAAAAAAAAAAAAAAAAAAAAAAAAAAAAAAAAAAAAAAAAAAAAAAAAAAAAAAAAAAAAAAAAAAAAAAAAAAAAAAAAAAAAAAAAAAAAAAAAAAAAAAAAAAAAAAAAAAAAAAAAAAAAAAAAAAAAAAAAAAAAAAAAAAAAAAAAAAAAAAAAAAAAAAAAAAAAAAAAAAAAAAAAAAAAAAAAAAAAAAAAAAAAAAAAAAAAAAAAAAAAAAAAAAAAAAAAAAAAAAAAAAAAAAAAAAAAAAAAAAAAAAAAAAAAAAAAAAAAAAAAAAAAAAAAAAAAAAAAAAAAAAAAAAAAAAAAAAAAAAAAAAAAAAAAAAAAAAAAAAAAAAAAAAAAAAAAAAAAAAAAAAAAAAAAAAAAAAAAAAAAAAAAAAAAAAAAAAAAAAAAAAAAAAAAAAAAAAAAAAAAAAAAAAAAAAAAAAAAAAAAAAAAAAAAAAAAAAAAAAAAAAAAAAAAAAAAAAAAAAAAAAAAAAAAAAAAAAAAAAAAAAAAAAAAAAAAAAAAAAAAAAAAAAAAAAAAAAAAAAAAAAAAAAAAAAAAAAAAAAAAAAAAAAAAAAAAAAAAAAAAAAAAAAAAAAAAAAAAAAAAAAAAAAAAAAAAAAAAAAAAAAAAAAAAAAAAAAAAAAAAAAAAAAAAAAAAAAAAAAAAAAAAAAAAAAAAAAAAAAAAAAAAAAAAAAAAAAAAAAAAAAAAAAAAAAAAAAAAAAAAAAAAAAAAAAAAAAAAAAAAAAAAAAAAAAAAAAAAAAAAAAAAAAAAAAAAAAAAAAAAAAAAAAAAAAAAAAAAAAAAAAAAAAAAAAAAAAAAAAAAAAAAAAAAAAAAAAAAAAAAAAAAAAAAAAAAAAAAAAAAAAAAAAAAAAAAAAAAAAAAAAAAAAAAAAAAAAAAAAAAAAAAAAAAAAAAAAAAAAAAAAAAAAAAAAAAAAAAAAAAAAAAAAAAAAAAAAAAAAAAAAAAAAAAAAAAAAAAAAAAAAAAAAAAAAAAAAAAAAAAAAAAAAAAAAAAAAAAAAAAAAAAAAAAAAAAAAAAAAAAAAAAAAAAAAAAAAAAAAAAAAAAAAAAAAAAAAAAAAAAAAAAAAAAAAAAAAAAAAAPZYQHd2Nulc7YkPQAWSO52LtG8vHwemaBB7qBsfRJ+M54krwe+xf27J0W9o5QAEzoQrQqZG7dRvtW17e/snrFsMR6M=</c2pa:manifest></metadata>
  <defs>
    <path id="b" fill-rule="evenodd" d="M60.0 90.3L61.5 89.9L62.9 89.6L64.4 89.5L65.9 89.4L67.4 89.4L68.8 89.4L70.3 89.4L71.8 89.5L73.2 89.6L74.7 89.7L76.2 89.8L77.6 90.0L79.1 90.2L80.6 90.4L82.1 90.6L83.5 90.9L85.0 91.2L86.5 91.4L87.9 91.7L89.4 92.1L90.9 92.4L92.4 92.7L93.8 93.1L95.3 93.4L96.8 93.8L98.2 94.2L99.7 94.5L101.2 94.9L102.6 95.3L104.1 95.7L105.6 96.1L107.1 96.5L108.5 96.9L110.0 97.3L111.5 97.7L112.9 98.1L114.4 98.5L115.9 98.8L117.4 99.2L118.8 99.6L120.3 100.0L121.8 100.3L123.2 100.7L124.7 101.0L126.2 101.4L127.6 101.7L129.1 102.0L130.6 102.3L132.1 102.6L133.5 102.9L135.0 103.1L136.5 103.4L137.9 103.6L139.4 103.8L140.9 104.0L142.4 104.2L143.8 104.3L145.3 104.5L146.8 104.6L148.2 104.7L149.7 104.8L151.2 104.8L152.6 104.9L154.1 104.9L155.6 104.9L157.1 104.9L158.5 104.8L160.0 104.7L161.5 104.7L162.9 104.5L164.4 104.4L165.9 104.2L167.4 104.0L168.8 103.8L170.3 103.6L171.8 103.3L173.2 103.0L174.7 102.7L176.2 102.4L177.6 102.0L179.1 101.6L180.6 101.2L182.1 100.8L183.5 100.3L185.0 99.8L186.5 99.3L187.9 98.8L189.4 98.3L190.9 97.7L192.4 97.1L193.8 96.5L195.3 95.8L196.8 95.2L198.2 94.5L199.7 93.8L201.2 93.1L202.6 92.4L204.1 91.6L205.6 90.8L207.1 90.1L208.5 89.2L210.0 88.4L211.5 87.6L212.9 86.7L214.4 85.9L215.9 85.0L217.4 84.1L218.8 83.2L220.3 82.3L221.8 81.4L223.2 80.5L224.7 79.5L226.2 78.6L227.6 77.6L229.1 76.7L230.6 75.7L232.1 74.8L233.5 73.8L235.0 72.8L236.5 71.9L237.9 70.9L239.4 69.9L240.9 69.0L242.4 68.0L243.8 67.1L245.3 66.1L246.8 65.2L248.2 64.2L249.7 63.3L251.2 62.4L252.6 61.5L254.1 60.6L255.6 59.7L257.1 58.8L258.5 57.9L260.0 57.1L261.5 56.2L262.9 55.4L264.4 54.6L265.9 53.9L267.4 53.1L268.8 52.3L270.3 51.6L271.8 50.8L273.2 50.1L274.7 49.4L276.2 48.7L277.6 48.0L279.1 47.3L280.6 46.7L282.1 46.0L283.5 45.4L285.0 44.8L286.5 44.2L287.9 43.6L289.4 43.1L290.9 42.6L292.4 42.1L293.8 41.6L295.3 40.9L296.8 40.4L298.2 40.0L299.7 39.6L301.2 39.3L302.6 39.1L304.1 38.8L305.6 38.6L307.1 38.4L308.5 38.2L310.0 38.1L311.5 38.1L312.9 38.0L314.4 38.1L315.9 38.1L317.4 38.5L318.8 38.7L320.3 38.9L321.8 39.2L323.2 39.5L324.7 40.5L326.2 41.0L327.6 41.5L329.1 42.0L330.6 42.6L332.1 42.0L333.5 42.7L335.0 43.4L336.5 44.1L337.9 44.9L339.4 46.8L340.9 47.7L342.4 48.6L343.8 49.6L345.3 50.5L346.8 51.1L348.2 52.1L349.7 53.1L351.2 54.1L352.6 55.1L354.1 57.0L355.6 58.0L357.1 59.1L358.5 60.1L360.0 61.1L361.5 60.6L362.9 61.6L364.4 62.5L365.9 63.5L367.4 64.4L368.8 64.8L370.3 65.7L371.8 66.6L373.2 67.5L374.7 68.4L376.2 69.8L377.6 70.7L379.1 71.6L380.6 72.5L382.1 73.4L383.5 74.9L385.0 75.8L386.5 76.7L387.9 77.7L389.4 78.7L390.9 78.9L392.4 80.0L393.8 81.0L395.3 82.1L396.8 83.2L398.2 84.3L399.7 85.5L401.2 86.7L402.6 88.0L404.1 89.3L405.6 89.9L407.1 91.3L408.5 92.7L410.0 94.2L411.5 95.7L412.9 98.0L414.4 99.6L415.9 101.2L417.4 102.8L418.8 104.5L420.3 106.1L421.8 107.8L423.2 109.4L424.7 111.1L426.2 112.7L427.6 116.2L429.1 117.8L430.6 119.3L432.1 120.8L433.5 122.3L435.0 120.7L436.5 122.0L437.9 123.2L439.4 124.4L440.9 125.4L442.4 130.6L443.8 131.6L445.3 132.4L446.8 133.1L448.2 133.8L449.7 134.3L451.2 134.7L452.6 135.1L454.1 135.3L455.6 135.4L457.1 133.1L458.5 133.0L460.0 132.9L461.5 132.6L462.9 132.2L464.4 130.6L465.9 130.1L467.4 129.6L468.8 129.0L470.3 128.3L471.8 130.1L473.2 129.4L474.7 128.6L476.2 127.9L477.6 127.2L479.1 123.9L480.6 123.1L482.1 122.4L483.5 121.7L485.0 121.1L486.5 121.8L487.9 121.2L489.4 120.7L490.9 120.2L492.4 119.9L493.8 118.2L495.3 117.9L496.8 117.7L498.2 117.5L499.7 117.4L501.2 117.4L502.6 117.4L504.1 117.5L505.6 117.6L507.1 117.8L508.5 120.8L510.0 121.1L511.5 121.3L512.9 121.6L514.4 121.9L515.9 123.7L517.4 124.0L518.8 124.3L520.3 124.5L521.8 124.8L523.2 120.6L524.7 120.8L526.2 120.9L527.6 120.9L529.1 120.9L530.6 119.4L532.1 119.3L533.5 119.0L535.0 118.8L536.5 118.4L537.9 122.4L539.4 121.9L540.9 121.3L542.4 120.7L543.8 120.0L545.3 120.7L546.8 119.9L548.2 119.1L549.7 118.2L551.2 117.3L552.6 111.9L554.1 110.9L555.6 110.0L557.1 109.2L558.5 108.4L560.0 110.7L560.0 122.8L558.5 125.6L557.1 126.8L555.6 128.1L554.1 129.3L552.6 130.6L551.2 131.8L549.7 133.0L548.2 134.1L546.8 135.3L545.3 136.3L543.8 137.3L542.4 138.3L540.9 139.2L539.4 140.0L537.9 140.7L536.5 138.4L535.0 139.0L533.5 139.5L532.1 139.9L530.6 140.3L529.1 139.1L527.6 139.3L526.2 139.5L524.7 139.6L523.2 139.7L521.8 144.0L520.3 144.0L518.8 143.9L517.4 143.9L515.9 143.8L514.4 145.1L512.9 145.0L511.5 144.9L510.0 144.8L508.5 144.7L507.1 141.9L505.6 141.9L504.1 142.0L502.6 142.1L501.2 142.3L499.7 142.5L498.2 142.8L496.8 143.1L495.3 143.6L493.8 144.0L492.4 147.2L490.9 147.8L489.4 148.4L487.9 149.1L486.5 149.9L485.0 149.4L483.5 150.2L482.1 151.1L480.6 152.0L479.1 152.9L477.6 155.1L476.2 156.0L474.7 156.9L473.2 157.8L471.8 158.7L470.3 154.7L468.8 155.6L467.4 156.4L465.9 157.1L464.4 157.8L462.9 163.2L461.5 163.7L460.0 164.1L458.5 164.5L457.1 164.8L455.6 163.8L454.1 163.9L452.6 163.8L451.2 163.7L449.7 163.5L448.2 162.1L446.8 161.6L445.3 161.1L443.8 160.5L442.4 159.8L440.9 157.9L439.4 157.0L437.9 156.0L436.5 155.0L435.0 153.9L433.5 153.7L432.1 152.4L430.6 151.1L429.1 149.7L427.6 148.3L426.2 146.9L424.7 145.4L423.2 144.0L421.8 142.5L420.3 141.0L418.8 138.7L417.4 137.2L415.9 135.8L414.4 134.3L412.9 132.9L411.5 132.4L410.0 131.1L408.5 129.8L407.1 128.5L405.6 127.2L404.1 126.1L402.6 124.9L401.2 123.8L399.7 122.7L398.2 121.7L396.8 122.2L395.3 121.2L393.8 120.3L392.4 119.4L390.9 118.5L389.4 117.0L387.9 116.2L386.5 115.4L385.0 114.6L383.5 113.8L382.1 113.1L380.6 112.3L379.1 111.6L377.6 110.8L376.2 110.1L374.7 109.3L373.2 108.6L371.8 107.8L370.3 107.0L368.8 106.2L367.4 104.9L365.9 104.1L364.4 103.3L362.9 102.4L361.5 101.6L360.0 100.2L358.5 99.4L357.1 98.5L355.6 97.7L354.1 96.8L352.6 95.9L351.2 95.0L349.7 94.2L348.2 93.3L346.8 92.4L345.3 92.8L343.8 91.9L342.4 91.1L340.9 90.3L339.4 89.5L337.9 87.7L336.5 87.0L335.0 86.4L333.5 85.8L332.1 85.2L330.6 84.7L329.1 84.2L327.6 83.7L326.2 83.3L324.7 83.0L323.2 83.3L321.8 83.0L320.3 82.8L318.8 82.6L317.4 82.5L315.9 82.5L314.4 82.4L312.9 82.5L311.5 82.5L310.0 82.7L308.5 82.4L307.1 82.7L305.6 82.9L304.1 83.2L302.6 83.5L301.2 84.4L299.7 84.8L298.2 85.2L296.8 85.6L295.3 86.1L293.8 86.2L292.4 86.7L290.9 87.2L289.4 87.8L287.9 88.4L286.5 88.9L285.0 89.5L283.5 90.1L282.1 90.8L280.6 91.4L279.1 92.2L277.6 92.9L276.2 93.6L274.7 94.3L273.2 95.0L271.8 95.7L270.3 96.5L268.8 97.2L267.4 98.0L265.9 98.7L264.4 99.6L262.9 100.4L261.5 101.2L260.0 102.0L258.5 102.8L257.1 103.6L255.6 104.4L254.1 105.3L252.6 106.1L251.2 107.0L249.7 107.9L248.2 108.8L246.8 109.7L245.3 110.5L243.8 111.4L242.4 112.3L240.9 113.2L239.4 114.1L237.9 115.0L236.5 115.9L235.0 116.8L233.5 117.7L232.1 118.5L230.6 119.4L229.1 120.3L227.6 121.1L226.2 122.0L224.7 122.9L223.2 123.7L221.8 124.5L220.3 125.4L218.8 126.2L217.4 127.0L215.9 127.8L214.4 128.5L212.9 129.3L211.5 130.0L210.0 130.8L208.5 131.5L207.1 132.2L205.6 132.8L204.1 133.5L202.6 134.1L201.2 134.7L199.7 135.3L198.2 135.9L196.8 136.5L195.3 137.0L193.8 137.5L192.4 138.0L190.9 138.5L189.4 138.9L187.9 139.3L186.5 139.7L185.0 140.1L183.5 140.4L182.1 140.8L180.6 141.1L179.1 141.3L177.6 141.6L176.2 141.8L174.7 142.0L173.2 142.1L171.8 142.3L170.3 142.4L168.8 142.5L167.4 142.5L165.9 142.6L164.4 142.6L162.9 142.6L161.5 142.5L160.0 142.5L158.5 142.4L157.1 142.3L155.6 142.1L154.1 141.9L152.6 141.8L151.2 141.5L149.7 141.3L148.2 141.0L146.8 140.8L145.3 140.5L143.8 140.1L142.4 139.8L140.9 139.4L139.4 139.1L137.9 138.7L136.5 138.2L135.0 137.8L133.5 137.3L132.1 136.9L130.6 136.4L129.1 135.9L127.6 135.4L126.2 134.8L124.7 134.3L123.2 133.7L121.8 133.2L120.3 132.6L118.8 132.0L117.4 131.4L115.9 130.8L114.4 130.2L112.9 129.6L111.5 129.0L110.0 128.3L108.5 127.7L107.1 127.1L105.6 126.4L104.1 125.8L102.6 125.1L101.2 124.5L99.7 123.9L98.2 123.2L96.8 122.6L95.3 122.0L93.8 121.4L92.4 120.7L90.9 120.1L89.4 119.5L87.9 118.9L86.5 118.3L85.0 117.8L83.5 117.2L82.1 116.6L80.6 116.1L79.1 115.6L77.6 115.0L76.2 114.5L74.7 114.0L73.2 113.6L71.8 113.1L70.3 112.6L68.8 112.2L67.4 111.8L65.9 111.4L64.4 111.0L62.9 110.6L61.5 110.2L60.0 109.7Z M60.0 136.5L61.5 135.1L62.9 134.3L64.4 133.7L65.9 133.1L67.4 132.6L68.8 132.2L70.3 131.8L71.8 131.5L73.2 131.3L74.7 131.0L76.2 130.8L77.6 130.6L79.1 130.5L80.6 130.4L82.1 130.3L83.5 130.3L85.0 130.3L86.5 130.3L87.9 130.4L89.4 130.4L90.9 130.5L92.4 130.7L93.8 130.8L95.3 131.0L96.8 131.2L98.2 131.4L99.7 131.6L101.2 131.9L102.6 132.2L104.1 132.5L105.6 132.8L107.1 133.1L108.5 133.5L110.0 133.9L111.5 134.3L112.9 134.7L114.4 135.1L115.9 135.5L117.4 136.0L118.8 136.4L120.3 136.9L121.8 137.4L123.2 137.9L124.7 138.4L126.2 138.9L127.6 139.4L129.1 140.0L130.6 140.5L132.1 141.0L133.5 141.6L135.0 142.1L136.5 142.7L137.9 143.2L139.4 143.8L140.9 144.3L142.4 144.9L143.8 145.4L145.3 146.0L146.8 146.5L148.2 147.0L149.7 147.6L151.2 148.1L152.6 148.6L154.1 149.1L155.6 149.6L157.1 150.1L158.5 150.6L160.0 151.0L161.5 151.5L162.9 151.9L164.4 152.4L165.9 152.8L167.4 153.2L168.8 153.6L170.3 153.9L171.8 154.3L173.2 154.6L174.7 154.9L176.2 155.2L177.6 155.5L179.1 155.7L180.6 156.0L182.1 156.2L183.5 156.4L185.0 156.5L186.5 156.7L187.9 156.8L189.4 156.9L190.9 157.0L192.4 157.0L193.8 157.0L195.3 157.0L196.8 157.0L198.2 156.9L199.7 156.9L201.2 156.8L202.6 156.6L204.1 156.5L205.6 156.3L207.1 156.1L208.5 155.8L210.0 155.6L211.5 155.3L212.9 155.0L214.4 154.6L215.9 154.3L217.4 153.9L218.8 153.4L220.3 153.0L221.8 152.5L223.2 152.0L224.7 151.5L226.2 151.0L227.6 150.4L229.1 149.8L230.6 149.2L232.1 148.6L233.5 147.9L235.0 147.2L236.5 146.5L237.9 145.8L239.4 145.1L240.9 144.3L242.4 143.5L243.8 142.8L245.3 142.0L246.8 141.1L248.2 140.3L249.7 139.4L251.2 138.6L252.6 137.7L254.1 136.8L255.6 135.8L257.1 134.9L258.5 134.0L260.0 133.0L261.5 132.1L262.9 131.1L264.4 130.1L265.9 129.1L267.4 128.0L268.8 127.0L270.3 126.0L271.8 125.0L273.2 123.9L274.7 122.8L276.2 121.8L277.6 120.8L279.1 119.8L280.6 118.8L282.1 117.8L283.5 116.8L285.0 115.8L286.5 114.8L287.9 113.7L289.4 112.7L290.9 111.8L292.4 110.8L293.8 109.9L295.3 109.2L296.8 108.3L298.2 107.5L299.7 106.6L301.2 105.8L302.6 105.4L304.1 104.6L305.6 103.9L307.1 103.1L308.5 102.4L310.0 101.3L311.5 100.7L312.9 100.0L314.4 99.3L315.9 98.7L317.4 98.3L318.8 97.7L320.3 97.1L321.8 96.5L323.2 95.9L324.7 94.7L326.2 94.1L327.6 93.6L329.1 93.0L330.6 92.4L332.1 92.8L333.5 92.3L335.0 91.8L336.5 91.3L337.9 90.8L339.4 90.0L340.9 89.5L342.4 89.1L343.8 88.7L345.3 88.3L346.8 88.3L348.2 88.0L349.7 87.7L351.2 87.4L352.6 87.2L354.1 87.1L355.6 86.9L357.1 86.9L358.5 86.9L360.0 86.9L361.5 87.0L362.9 87.2L364.4 87.4L365.9 87.7L367.4 88.1L368.8 87.9L370.3 88.4L371.8 89.0L373.2 89.7L374.7 90.4L376.2 92.4L377.6 93.2L379.1 94.2L380.6 95.2L382.1 96.3L383.5 95.4L385.0 96.6L386.5 97.8L387.9 99.1L389.4 100.4L390.9 103.1L392.4 104.5L393.8 105.9L395.3 107.3L396.8 108.8L398.2 108.0L399.7 109.4L401.2 110.8L402.6 112.2L404.1 113.6L405.6 117.5L407.1 118.8L408.5 120.2L410.0 121.5L411.5 122.8L412.9 124.1L414.4 125.3L415.9 126.5L417.4 127.6L418.8 128.7L420.3 127.9L421.8 128.9L423.2 129.8L424.7 130.7L426.2 131.5L427.6 133.3L429.1 134.0L430.6 134.8L432.1 135.5L433.5 136.2L435.0 136.9L436.5 137.5L437.9 138.2L439.4 138.8L440.9 139.5L442.4 141.2L443.8 141.9L445.3 142.6L446.8 143.4L448.2 144.1L449.7 142.8L451.2 143.6L452.6 144.4L454.1 145.3L455.6 146.3L457.1 149.6L458.5 150.7L460.0 151.8L461.5 152.9L462.9 154.1L464.4 154.2L465.9 155.5L467.4 156.8L468.8 158.2L470.3 159.5L471.8 163.4L473.2 164.8L474.7 166.2L476.2 167.7L477.6 169.1L479.1 169.2L480.6 170.6L482.1 172.0L483.5 173.2L485.0 174.5L486.5 175.7L487.9 176.8L489.4 177.8L490.9 178.8L492.4 179.7L493.8 179.1L495.3 179.7L496.8 180.3L498.2 180.7L499.7 181.1L501.2 181.3L502.6 181.3L504.1 181.3L505.6 181.2L507.1 180.9L508.5 179.1L510.0 178.6L511.5 178.0L512.9 177.2L514.4 176.4L515.9 174.1L517.4 173.1L518.8 172.0L520.3 170.8L521.8 169.6L523.2 172.7L524.7 171.4L526.2 170.1L527.6 168.8L529.1 167.5L530.6 166.2L532.1 164.9L533.5 163.6L535.0 162.3L536.5 161.1L537.9 158.5L539.4 157.3L540.9 156.3L542.4 155.3L543.8 154.4L545.3 152.1L546.8 151.4L548.2 150.7L549.7 150.2L551.2 149.7L552.6 149.2L554.1 148.9L555.6 148.6L557.1 148.4L558.5 148.1L560.0 146.0L560.0 158.0L558.5 162.2L557.1 162.8L555.6 163.4L554.1 163.9L552.6 164.5L551.2 165.1L549.7 165.9L548.2 166.6L546.8 167.5L545.3 168.4L543.8 168.0L542.4 169.0L540.9 170.2L539.4 171.4L537.9 172.7L536.5 174.1L535.0 175.5L533.5 176.9L532.1 178.4L530.6 179.8L529.1 182.8L527.6 184.3L526.2 185.8L524.7 187.3L523.2 188.7L521.8 190.1L520.3 191.5L518.8 192.7L517.4 194.0L515.9 195.1L514.4 196.2L512.9 197.2L511.5 198.0L510.0 198.8L508.5 199.5L507.1 200.0L505.6 200.4L504.1 200.7L502.6 200.9L501.2 201.0L499.7 196.8L498.2 196.7L496.8 196.4L495.3 196.0L493.8 195.5L492.4 196.3L490.9 195.6L489.4 194.8L487.9 193.9L486.5 192.9L485.0 191.9L483.5 190.8L482.1 189.7L480.6 188.5L479.1 187.3L477.6 186.1L476.2 184.9L474.7 183.6L473.2 182.3L471.8 181.1L470.3 179.9L468.8 178.6L467.4 177.4L465.9 176.3L464.4 175.2L462.9 175.3L461.5 174.2L460.0 173.2L458.5 172.2L457.1 171.3L455.6 171.6L454.1 170.8L452.6 170.0L451.2 169.3L449.7 168.6L448.2 167.9L446.8 167.3L445.3 166.7L443.8 166.1L442.4 165.6L440.9 163.0L439.4 162.5L437.9 162.0L436.5 161.4L435.0 160.9L433.5 162.4L432.1 161.8L430.6 161.3L429.1 160.7L427.6 160.0L426.2 160.3L424.7 159.6L423.2 158.8L421.8 158.0L420.3 157.1L418.8 156.2L417.4 155.3L415.9 154.3L414.4 153.2L412.9 152.2L411.5 149.3L410.0 148.2L408.5 147.0L407.1 145.8L405.6 144.5L404.1 143.3L402.6 142.0L401.2 140.7L399.7 139.4L398.2 138.0L396.8 136.7L395.3 135.4L393.8 134.1L392.4 132.9L390.9 131.6L389.4 129.7L387.9 128.5L386.5 127.4L385.0 126.3L383.5 125.3L382.1 123.7L380.6 122.7L379.1 121.9L377.6 121.1L376.2 120.4L374.7 119.7L373.2 119.2L371.8 118.7L370.3 118.2L368.8 117.9L367.4 118.1L365.9 117.9L364.4 117.7L362.9 117.6L361.5 117.6L360.0 118.1L358.5 118.2L357.1 118.3L355.6 118.5L354.1 118.7L352.6 119.9L351.2 120.2L349.7 120.5L348.2 120.9L346.8 121.3L345.3 121.3L343.8 121.8L342.4 122.3L340.9 122.8L339.4 123.4L337.9 123.9L336.5 124.5L335.0 125.1L333.5 125.7L332.1 126.3L330.6 125.9L329.1 126.6L327.6 127.2L326.2 127.9L324.7 128.5L323.2 129.5L321.8 130.1L320.3 130.8L318.8 131.5L317.4 132.2L315.9 133.3L314.4 134.0L312.9 134.7L311.5 135.4L310.0 136.2L308.5 136.5L307.1 137.3L305.6 138.1L304.1 138.9L302.6 139.7L301.2 140.5L299.7 141.4L298.2 142.2L296.8 143.1L295.3 144.0L293.8 145.1L292.4 146.0L290.9 146.9L289.4 147.9L287.9 148.9L286.5 150.0L285.0 151.0L283.5 152.0L282.1 153.0L280.6 154.0L279.1 154.9L277.6 155.9L276.2 157.0L274.7 158.0L273.2 159.0L271.8 159.9L270.3 161.0L268.8 162.0L267.4 163.0L265.9 164.0L264.4 165.1L262.9 166.1L261.5 167.1L260.0 168.0L258.5 168.9L257.1 169.8L255.6 170.7L254.1 171.6L252.6 172.5L251.2 173.4L249.7 174.2L248.2 175.0L246.8 175.8L245.3 176.6L243.8 177.4L242.4 178.1L240.9 178.8L239.4 179.5L237.9 180.2L236.5 180.8L235.0 181.5L233.5 182.1L232.1 182.7L230.6 183.3L229.1 183.8L227.6 184.3L226.2 184.8L224.7 185.3L223.2 185.8L221.8 186.2L220.3 186.6L218.8 186.9L217.4 187.3L215.9 187.6L214.4 187.9L212.9 188.1L211.5 188.4L210.0 188.6L208.5 188.8L207.1 188.9L205.6 189.0L204.1 189.1L202.6 189.2L201.2 189.2L199.7 189.3L198.2 189.2L196.8 189.2L195.3 189.1L193.8 189.0L192.4 188.9L190.9 188.8L189.4 188.6L187.9 188.4L186.5 188.2L185.0 187.9L183.5 187.7L182.1 187.4L180.6 187.0L179.1 186.7L177.6 186.3L176.2 186.0L174.7 185.5L173.2 185.1L171.8 184.7L170.3 184.2L168.8 183.7L167.4 183.2L165.9 182.7L164.4 182.2L162.9 181.6L161.5 181.0L160.0 180.5L158.5 179.9L157.1 179.3L155.6 178.6L154.1 178.0L152.6 177.4L151.2 176.7L149.7 176.0L148.2 175.4L146.8 174.7L145.3 174.0L143.8 173.3L142.4 172.6L140.9 172.0L139.4 171.3L137.9 170.6L136.5 169.9L135.0 169.2L133.5 168.5L132.1 167.8L130.6 167.1L129.1 166.4L127.6 165.7L126.2 165.0L124.7 164.3L123.2 163.7L121.8 163.0L120.3 162.4L118.8 161.7L117.4 161.1L115.9 160.5L114.4 159.8L112.9 159.3L111.5 158.7L110.0 158.1L108.5 157.5L107.1 157.0L105.6 156.5L104.1 156.0L102.6 155.5L101.2 155.0L99.7 154.5L98.2 154.1L96.8 153.7L95.3 153.3L93.8 152.9L92.4 152.5L90.9 152.2L89.4 151.9L87.9 151.6L86.5 151.3L85.0 151.0L83.5 150.8L82.1 150.6L80.6 150.4L79.1 150.3L77.6 150.2L76.2 150.1L74.7 150.0L73.2 150.0L71.8 150.0L70.3 150.0L68.8 150.0L67.4 150.1L65.9 150.2L64.4 150.4L62.9 150.7L61.5 151.0L60.0 151.5Z M60.0 182.1L61.5 180.5L62.9 179.4L64.4 178.5L65.9 177.7L67.4 177.0L68.8 176.3L70.3 175.7L71.8 175.1L73.2 174.5L74.7 174.0L76.2 173.4L77.6 173.0L79.1 172.5L80.6 172.1L82.1 171.6L83.5 171.3L85.0 170.9L86.5 170.6L87.9 170.2L89.4 169.9L90.9 169.7L92.4 169.4L93.8 169.2L95.3 169.0L96.8 168.9L98.2 168.7L99.7 168.6L101.2 168.5L102.6 168.4L104.1 168.4L105.6 168.4L107.1 168.4L108.5 168.4L110.0 168.5L111.5 168.5L112.9 168.7L114.4 168.8L115.9 168.9L117.4 169.1L118.8 169.3L120.3 169.5L121.8 169.8L123.2 170.0L124.7 170.3L126.2 170.6L127.6 171.0L129.1 171.3L130.6 171.7L132.1 172.1L133.5 172.5L135.0 172.9L136.5 173.4L137.9 173.9L139.4 174.3L140.9 174.9L142.4 175.4L143.8 175.9L145.3 176.5L146.8 177.0L148.2 177.6L149.7 178.2L151.2 178.8L152.6 179.4L154.1 180.1L155.6 180.7L157.1 181.4L158.5 182.0L160.0 182.7L161.5 183.4L162.9 184.1L164.4 184.7L165.9 185.4L167.4 186.1L168.8 186.8L170.3 187.5L171.8 188.2L173.2 188.9L174.7 189.6L176.2 190.3L177.6 191.0L179.1 191.7L180.6 192.4L182.1 193.1L183.5 193.8L185.0 194.4L186.5 195.1L187.9 195.8L189.4 196.4L190.9 197.0L192.4 197.7L193.8 198.3L195.3 198.9L196.8 199.5L198.2 200.0L199.7 200.6L201.2 201.1L202.6 201.6L204.1 202.1L205.6 202.6L207.1 203.1L208.5 203.6L210.0 204.0L211.5 204.4L212.9 204.8L214.4 205.1L215.9 205.5L217.4 205.8L218.8 206.1L220.3 206.4L221.8 206.6L223.2 206.8L224.7 207.0L226.2 207.2L227.6 207.4L229.1 207.5L230.6 207.6L232.1 207.6L233.5 207.7L235.0 207.7L236.5 207.7L237.9 207.6L239.4 207.6L240.9 207.5L242.4 207.4L243.8 207.2L245.3 207.0L246.8 206.8L248.2 206.6L249.7 206.3L251.2 206.1L252.6 205.8L254.1 205.5L255.6 205.2L257.1 204.8L258.5 204.4L260.0 204.0L261.5 203.6L262.9 203.1L264.4 202.7L265.9 202.1L267.4 201.6L268.8 201.1L270.3 200.5L271.8 199.9L273.2 199.3L274.7 198.6L276.2 198.0L277.6 197.3L279.1 196.7L280.6 196.0L282.1 195.3L283.5 194.6L285.0 193.8L286.5 193.0L287.9 192.3L289.4 191.4L290.9 190.6L292.4 189.7L293.8 188.8L295.3 187.6L296.8 186.6L298.2 185.6L299.7 184.6L301.2 183.5L302.6 182.5L304.1 181.4L305.6 180.3L307.1 179.2L308.5 178.0L310.0 177.1L311.5 175.9L312.9 174.7L314.4 173.6L315.9 172.4L317.4 171.2L318.8 170.0L320.3 168.9L321.8 167.7L323.2 166.5L324.7 165.4L326.2 164.3L327.6 163.1L329.1 162.1L330.6 161.0L332.1 160.0L333.5 159.0L335.0 158.0L336.5 157.1L337.9 156.2L339.4 155.7L340.9 154.8L342.4 154.1L343.8 153.3L345.3 152.6L346.8 152.4L348.2 151.8L349.7 151.2L351.2 150.7L352.6 150.2L354.1 149.3L355.6 148.8L357.1 148.4L358.5 148.0L360.0 147.7L361.5 146.3L362.9 146.0L364.4 145.7L365.9 145.4L367.4 145.1L368.8 146.5L370.3 146.2L371.8 146.0L373.2 145.8L374.7 145.5L376.2 144.1L377.6 143.8L379.1 143.5L380.6 143.3L382.1 143.0L383.5 142.0L385.0 141.7L386.5 141.4L387.9 141.1L389.4 140.8L390.9 139.8L392.4 139.5L393.8 139.2L395.3 138.9L396.8 138.6L398.2 139.1L399.7 138.9L401.2 138.7L402.6 138.6L404.1 138.4L405.6 140.0L407.1 140.0L408.5 140.0L410.0 140.2L411.5 140.3L412.9 138.9L414.4 139.2L415.9 139.5L417.4 140.0L418.8 140.5L420.3 143.9L421.8 144.6L423.2 145.4L424.7 146.3L426.2 147.3L427.6 148.4L429.1 149.6L430.6 150.8L432.1 152.1L433.5 153.5L435.0 153.0L436.5 154.5L437.9 156.1L439.4 157.8L440.9 159.4L442.4 163.3L443.8 165.0L445.3 166.8L446.8 168.7L448.2 170.5L449.7 170.1L451.2 171.9L452.6 173.7L454.1 175.4L455.6 177.2L457.1 181.1L458.5 182.8L460.0 184.4L461.5 185.9L462.9 187.4L464.4 188.8L465.9 190.1L467.4 191.3L468.8 192.5L470.3 193.6L471.8 190.9L473.2 191.7L474.7 192.5L476.2 193.2L477.6 193.9L479.1 194.4L480.6 194.9L482.1 195.3L483.5 195.6L485.0 195.9L486.5 196.1L487.9 196.3L489.4 196.4L490.9 196.6L492.4 196.6L493.8 196.7L495.3 196.8L496.8 196.8L498.2 196.9L499.7 196.9L501.2 198.4L502.6 198.5L504.1 198.7L505.6 198.9L507.1 199.1L508.5 196.6L510.0 196.9L511.5 197.3L512.9 197.7L514.4 198.2L515.9 202.9L517.4 203.5L518.8 204.2L520.3 204.8L521.8 205.5L523.2 203.4L524.7 204.1L526.2 204.9L527.6 205.7L529.1 206.5L530.6 211.7L532.1 212.5L533.5 213.3L535.0 214.0L536.5 214.7L537.9 209.5L539.4 210.0L540.9 210.5L542.4 211.0L543.8 211.3L545.3 216.1L546.8 216.2L548.2 216.2L549.7 216.1L551.2 215.9L552.6 212.6L554.1 212.0L555.6 211.3L557.1 210.4L558.5 209.2L560.0 207.2L560.0 217.0L558.5 220.9L557.1 222.3L555.6 223.5L554.1 224.4L552.6 225.1L551.2 224.2L549.7 224.6L548.2 224.8L546.8 225.0L545.3 225.0L543.8 226.3L542.4 226.1L540.9 225.9L539.4 225.5L537.9 225.0L536.5 221.6L535.0 221.0L533.5 220.4L532.1 219.8L530.6 219.1L529.1 221.4L527.6 220.7L526.2 220.0L524.7 219.4L523.2 218.7L521.8 218.1L520.3 217.5L518.8 217.0L517.4 216.5L515.9 216.0L514.4 217.0L512.9 216.7L511.5 216.4L510.0 216.1L508.5 215.9L507.1 215.7L505.6 215.6L504.1 215.5L502.6 215.5L501.2 215.5L499.7 214.1L498.2 214.1L496.8 214.2L495.3 214.2L493.8 214.3L492.4 213.0L490.9 213.0L489.4 213.0L487.9 213.0L486.5 212.9L485.0 211.5L483.5 211.4L482.1 211.1L480.6 210.9L479.1 210.5L477.6 212.6L476.2 212.1L474.7 211.5L473.2 210.8L471.8 210.0L470.3 210.4L468.8 209.4L467.4 208.4L465.9 207.3L464.4 206.0L462.9 203.6L461.5 202.2L460.0 200.8L458.5 199.4L457.1 197.8L455.6 194.0L454.1 192.4L452.6 190.8L451.2 189.1L449.7 187.4L448.2 187.9L446.8 186.2L445.3 184.5L443.8 182.9L442.4 181.2L440.9 177.5L439.4 175.9L437.9 174.4L436.5 173.0L435.0 171.6L433.5 170.2L432.1 169.0L430.6 167.8L429.1 166.7L427.6 165.7L426.2 165.7L424.7 164.8L423.2 164.0L421.8 163.3L420.3 162.7L418.8 162.2L417.4 161.8L415.9 161.4L414.4 161.1L412.9 160.9L411.5 160.0L410.0 159.9L408.5 159.9L407.1 160.0L405.6 160.1L404.1 162.7L402.6 162.9L401.2 163.1L399.7 163.4L398.2 163.7L396.8 161.8L395.3 162.1L393.8 162.5L392.4 162.9L390.9 163.3L389.4 163.7L387.9 164.1L386.5 164.5L385.0 164.9L383.5 165.3L382.1 166.3L380.6 166.7L379.1 167.1L377.6 167.5L376.2 167.8L374.7 168.8L373.2 169.1L371.8 169.4L370.3 169.8L368.8 170.1L367.4 171.0L365.9 171.4L364.4 171.7L362.9 172.1L361.5 172.5L360.0 170.9L358.5 171.4L357.1 171.9L355.6 172.4L354.1 172.9L352.6 174.8L351.2 175.4L349.7 176.0L348.2 176.7L346.8 177.4L345.3 176.9L343.8 177.7L342.4 178.5L340.9 179.4L339.4 180.3L337.9 182.3L336.5 183.3L335.0 184.3L333.5 185.3L332.1 186.4L330.6 187.1L329.1 188.3L327.6 189.4L326.2 190.6L324.7 191.8L323.2 193.5L321.8 194.7L320.3 195.9L318.8 197.1L317.4 198.3L315.9 199.1L314.4 200.3L312.9 201.5L311.5 202.7L310.0 203.9L308.5 205.1L307.1 206.3L305.6 207.4L304.1 208.6L302.6 209.7L301.2 210.9L299.7 212.0L298.2 213.0L296.8 214.0L295.3 215.0L293.8 215.9L292.4 216.8L290.9 217.7L289.4 218.6L287.9 219.5L286.5 220.2L285.0 221.0L283.5 221.8L282.1 222.6L280.6 223.3L279.1 223.9L277.6 224.6L276.2 225.3L274.7 226.0L273.2 226.6L271.8 227.3L270.3 227.9L268.8 228.5L267.4 229.0L265.9 229.5L264.4 229.9L262.9 230.4L261.5 230.8L260.0 231.2L258.5 231.6L257.1 232.0L255.6 232.4L254.1 232.7L252.6 233.0L251.2 233.2L249.7 233.5L248.2 233.7L246.8 233.9L245.3 234.1L243.8 234.2L242.4 234.3L240.9 234.4L239.4 234.4L237.9 234.5L236.5 234.5L235.0 234.4L233.5 234.4L232.1 234.3L230.6 234.2L229.1 234.0L227.6 233.8L226.2 233.6L224.7 233.4L223.2 233.2L221.8 232.9L220.3 232.6L218.8 232.2L217.4 231.9L215.9 231.5L214.4 231.1L212.9 230.7L211.5 230.2L210.0 229.7L208.5 229.2L207.1 228.7L205.6 228.2L204.1 227.6L202.6 227.0L201.2 226.5L199.7 225.8L198.2 225.2L196.8 224.6L195.3 223.9L193.8 223.2L192.4 222.5L190.9 221.8L189.4 221.1L187.9 220.4L186.5 219.7L185.0 218.9L183.5 218.2L182.1 217.4L180.6 216.6L179.1 215.9L177.6 215.1L176.2 214.3L174.7 213.5L173.2 212.7L171.8 211.9L170.3 211.1L168.8 210.3L167.4 209.6L165.9 208.8L164.4 208.0L162.9 207.2L161.5 206.4L160.0 205.6L158.5 204.9L157.1 204.1L155.6 203.4L154.1 202.6L152.6 201.9L151.2 201.2L149.7 200.4L148.2 199.7L146.8 199.0L145.3 198.4L143.8 197.7L142.4 197.0L140.9 196.4L139.4 195.8L137.9 195.2L136.5 194.6L135.0 194.0L133.5 193.5L132.1 192.9L130.6 192.4L129.1 191.9L127.6 191.4L126.2 191.0L124.7 190.6L123.2 190.1L121.8 189.7L120.3 189.4L118.8 189.0L117.4 188.7L115.9 188.4L114.4 188.1L112.9 187.8L111.5 187.6L110.0 187.4L108.5 187.2L107.1 187.0L105.6 186.8L104.1 186.7L102.6 186.6L101.2 186.5L99.7 186.5L98.2 186.4L96.8 186.4L95.3 186.4L93.8 186.4L92.4 186.5L90.9 186.6L89.4 186.7L87.9 186.8L86.5 186.9L85.0 187.1L83.5 187.3L82.1 187.5L80.6 187.7L79.1 187.9L77.6 188.2L76.2 188.5L74.7 188.8L73.2 189.1L71.8 189.5L70.3 189.8L68.8 190.2L67.4 190.6L65.9 191.1L64.4 191.6L62.9 192.2L61.5 192.8L60.0 193.9Z M60.0 227.4L61.5 226.3L62.9 225.5L64.4 224.9L65.9 224.2L67.4 223.6L68.8 223.0L70.3 222.4L71.8 221.8L73.2 221.2L74.7 220.6L76.2 220.0L77.6 219.5L79.1 218.9L80.6 218.3L82.1 217.8L83.5 217.2L85.0 216.7L86.5 216.1L87.9 215.6L89.4 215.1L90.9 214.5L92.4 214.0L93.8 213.5L95.3 213.0L96.8 212.6L98.2 212.1L99.7 211.6L101.2 211.2L102.6 210.8L104.1 210.3L105.6 209.9L107.1 209.6L108.5 209.2L110.0 208.8L111.5 208.5L112.9 208.2L114.4 207.9L115.9 207.6L117.4 207.4L118.8 207.1L120.3 206.9L121.8 206.7L123.2 206.5L124.7 206.4L126.2 206.2L127.6 206.1L129.1 206.1L130.6 206.0L132.1 206.0L133.5 205.9L135.0 205.9L136.5 206.0L137.9 206.0L139.4 206.1L140.9 206.2L142.4 206.3L143.8 206.5L145.3 206.7L146.8 206.9L148.2 207.1L149.7 207.3L151.2 207.6L152.6 207.9L154.1 208.2L155.6 208.6L157.1 209.0L158.5 209.3L160.0 209.8L161.5 210.2L162.9 210.6L164.4 211.1L165.9 211.6L167.4 212.1L168.8 212.7L170.3 213.2L171.8 213.8L173.2 214.4L174.7 215.0L176.2 215.7L177.6 216.3L179.1 217.0L180.6 217.7L182.1 218.4L183.5 219.1L185.0 219.8L186.5 220.5L187.9 221.3L189.4 222.0L190.9 222.8L192.4 223.6L193.8 224.4L195.3 225.2L196.8 226.0L198.2 226.8L199.7 227.6L201.2 228.4L202.6 229.2L204.1 230.1L205.6 230.9L207.1 231.7L208.5 232.6L210.0 233.4L211.5 234.2L212.9 235.0L214.4 235.9L215.9 236.7L217.4 237.5L218.8 238.3L220.3 239.1L221.8 239.9L223.2 240.7L224.7 241.4L226.2 242.2L227.6 242.9L229.1 243.7L230.6 244.4L232.1 245.1L233.5 245.8L235.0 246.5L236.5 247.1L237.9 247.8L239.4 248.4L240.9 249.1L242.4 249.7L243.8 250.3L245.3 250.8L246.8 251.4L248.2 251.9L249.7 252.4L251.2 252.9L252.6 253.4L254.1 253.9L255.6 254.3L257.1 254.7L258.5 255.1L260.0 255.5L261.5 255.8L262.9 256.1L264.4 256.4L265.9 256.6L267.4 256.8L268.8 257.0L270.3 257.2L271.8 257.3L273.2 257.3L274.7 257.4L276.2 257.4L277.6 257.4L279.1 257.4L280.6 257.3L282.1 257.2L283.5 257.1L285.0 256.9L286.5 256.7L287.9 256.7L289.4 256.5L290.9 256.2L292.4 256.0L293.8 255.7L295.3 255.2L296.8 254.9L298.2 254.5L299.7 254.1L301.2 253.7L302.6 253.5L304.1 253.1L305.6 252.6L307.1 252.2L308.5 251.7L310.0 250.6L311.5 250.1L312.9 249.6L314.4 249.1L315.9 248.5L317.4 248.0L318.8 247.4L320.3 246.8L321.8 246.2L323.2 245.6L324.7 245.0L326.2 244.3L327.6 243.6L329.1 242.9L330.6 242.2L332.1 242.1L333.5 241.3L335.0 240.5L336.5 239.7L337.9 238.9L339.4 237.6L340.9 236.7L342.4 235.7L343.8 234.7L345.3 233.7L346.8 232.2L348.2 231.1L349.7 229.9L351.2 228.8L352.6 227.5L354.1 227.7L355.6 226.4L357.1 225.2L358.5 223.9L360.0 222.6L361.5 221.3L362.9 219.9L364.4 218.6L365.9 217.2L367.4 215.9L368.8 214.6L370.3 213.2L371.8 211.9L373.2 210.7L374.7 209.4L376.2 208.2L377.6 207.0L379.1 205.8L380.6 204.7L382.1 203.7L383.5 202.0L385.0 201.1L386.5 200.2L387.9 199.4L389.4 198.6L390.9 199.3L392.4 198.7L393.8 198.2L395.3 197.8L396.8 197.4L398.2 194.8L399.7 194.5L401.2 194.3L402.6 194.1L404.1 194.0L405.6 193.2L407.1 193.2L408.5 193.2L410.0 193.3L411.5 193.5L412.9 197.1L414.4 197.3L415.9 197.6L417.4 197.8L418.8 198.1L420.3 194.8L421.8 195.1L423.2 195.3L424.7 195.6L426.2 195.8L427.6 198.0L429.1 198.2L430.6 198.4L432.1 198.6L433.5 198.7L435.0 198.9L436.5 199.0L437.9 199.0L439.4 199.1L440.9 199.1L442.4 199.1L443.8 199.1L445.3 199.0L446.8 199.0L448.2 198.9L449.7 200.0L451.2 199.9L452.6 199.9L454.1 199.9L455.6 199.9L457.1 201.0L458.5 201.1L460.0 201.2L461.5 201.3L462.9 201.5L464.4 199.4L465.9 199.7L467.4 200.1L468.8 200.5L470.3 201.1L471.8 204.2L473.2 204.9L474.7 205.7L476.2 206.6L477.6 207.6L479.1 204.8L480.6 206.0L482.1 207.2L483.5 208.5L485.0 209.9L486.5 214.0L487.9 215.6L489.4 217.2L490.9 218.9L492.4 220.6L493.8 222.4L495.3 224.2L496.8 226.0L498.2 227.9L499.7 229.7L501.2 227.5L502.6 229.3L504.1 231.1L505.6 232.8L507.1 234.5L508.5 237.5L510.0 239.1L511.5 240.6L512.9 242.1L514.4 243.4L515.9 244.6L517.4 245.8L518.8 246.8L520.3 247.7L521.8 248.5L523.2 250.6L524.7 251.2L526.2 251.6L527.6 251.9L529.1 252.1L530.6 253.7L532.1 253.6L533.5 253.5L535.0 253.2L536.5 252.9L537.9 253.9L539.4 253.4L540.9 252.7L542.4 252.1L543.8 251.3L545.3 247.5L546.8 246.7L548.2 245.8L549.7 244.8L551.2 243.8L552.6 244.4L554.1 243.3L555.6 242.3L557.1 241.2L558.5 240.0L560.0 238.4L560.0 246.3L558.5 243.8L557.1 245.2L555.6 246.4L554.1 247.6L552.6 248.8L551.2 251.4L549.7 252.5L548.2 253.6L546.8 254.6L545.3 255.6L543.8 255.1L542.4 255.9L540.9 256.7L539.4 257.5L537.9 258.1L536.5 258.7L535.0 259.2L533.5 259.5L532.1 259.8L530.6 259.9L529.1 260.0L527.6 259.9L526.2 259.7L524.7 259.4L523.2 258.9L521.8 256.9L520.3 256.2L518.8 255.4L517.4 254.5L515.9 253.4L514.4 255.1L512.9 253.9L511.5 252.6L510.0 251.1L508.5 249.6L507.1 250.9L505.6 249.2L504.1 247.6L502.6 245.8L501.2 244.1L499.7 238.3L498.2 236.5L496.8 234.8L495.3 233.0L493.8 231.3L492.4 228.3L490.9 226.7L489.4 225.1L487.9 223.6L486.5 222.2L485.0 223.4L483.5 222.1L482.1 220.9L480.6 219.7L479.1 218.7L477.6 215.2L476.2 214.3L474.7 213.5L473.2 212.8L471.8 212.3L470.3 211.7L468.8 211.3L467.4 211.0L465.9 210.7L464.4 210.5L462.9 212.7L461.5 212.6L460.0 212.6L458.5 212.6L457.1 212.6L455.6 212.7L454.1 212.8L452.6 213.0L451.2 213.1L449.7 213.3L448.2 212.3L446.8 212.5L445.3 212.6L443.8 212.8L442.4 212.9L440.9 211.9L439.4 212.0L437.9 212.1L436.5 212.1L435.0 212.1L433.5 215.1L432.1 215.0L430.6 214.9L429.1 214.8L427.6 214.6L426.2 212.6L424.7 212.4L423.2 212.2L421.8 212.0L420.3 211.8L418.8 211.7L417.4 211.5L415.9 211.3L414.4 211.2L412.9 211.0L411.5 212.6L410.0 212.6L408.5 212.5L407.1 212.5L405.6 212.6L404.1 210.3L402.6 210.5L401.2 210.7L399.7 211.0L398.2 211.4L396.8 213.3L395.3 213.8L393.8 214.4L392.4 215.0L390.9 215.7L389.4 216.5L387.9 217.3L386.5 218.2L385.0 219.2L383.5 220.2L382.1 220.6L380.6 221.8L379.1 223.0L377.6 224.2L376.2 225.5L374.7 228.0L373.2 229.3L371.8 230.7L370.3 232.1L368.8 233.4L367.4 234.3L365.9 235.7L364.4 237.1L362.9 238.6L361.5 240.0L360.0 240.4L358.5 241.8L357.1 243.1L355.6 244.5L354.1 245.8L352.6 247.1L351.2 248.4L349.7 249.6L348.2 250.9L346.8 252.0L345.3 254.4L343.8 255.4L342.4 256.5L340.9 257.5L339.4 258.4L337.9 259.7L336.5 260.6L335.0 261.5L333.5 262.3L332.1 263.1L330.6 263.5L329.1 264.3L327.6 265.0L326.2 265.7L324.7 266.4L323.2 266.5L321.8 267.1L320.3 267.8L318.8 268.4L317.4 269.0L315.9 270.0L314.4 270.6L312.9 271.1L311.5 271.7L310.0 272.2L308.5 272.1L307.1 272.6L305.6 273.1L304.1 273.6L302.6 274.1L301.2 274.8L299.7 275.3L298.2 275.7L296.8 276.0L295.3 276.4L293.8 276.8L292.4 277.1L290.9 277.4L289.4 277.7L287.9 277.9L286.5 278.1L285.0 278.3L283.5 278.5L282.1 278.6L280.6 278.7L279.1 278.6L277.6 278.7L276.2 278.7L274.7 278.7L273.2 278.6L271.8 278.6L270.3 278.5L268.8 278.4L267.4 278.2L265.9 277.9L264.4 277.6L262.9 277.4L261.5 277.1L260.0 276.7L258.5 276.3L257.1 276.0L255.6 275.6L254.1 275.1L252.6 274.6L251.2 274.1L249.7 273.6L248.2 273.0L246.8 272.5L245.3 271.9L243.8 271.3L242.4 270.7L240.9 270.0L239.4 269.4L237.9 268.7L236.5 268.0L235.0 267.3L233.5 266.6L232.1 265.9L230.6 265.1L229.1 264.4L227.6 263.6L226.2 262.8L224.7 262.0L223.2 261.2L221.8 260.3L220.3 259.5L218.8 258.7L217.4 257.8L215.9 257.0L214.4 256.1L212.9 255.2L211.5 254.3L210.0 253.5L208.5 252.6L207.1 251.7L205.6 250.8L204.1 249.9L202.6 249.1L201.2 248.2L199.7 247.3L198.2 246.4L196.8 245.6L195.3 244.7L193.8 243.8L192.4 243.0L190.9 242.2L189.4 241.3L187.9 240.5L186.5 239.7L185.0 238.9L183.5 238.1L182.1 237.3L180.6 236.6L179.1 235.8L177.6 235.1L176.2 234.4L174.7 233.7L173.2 233.0L171.8 232.3L170.3 231.7L168.8 231.0L167.4 230.4L165.9 229.8L164.4 229.2L162.9 228.7L161.5 228.2L160.0 227.7L158.5 227.2L157.1 226.7L155.6 226.2L154.1 225.8L152.6 225.4L151.2 225.0L149.7 224.7L148.2 224.3L146.8 224.0L145.3 223.8L143.8 223.5L142.4 223.2L140.9 223.0L139.4 222.8L137.9 222.7L136.5 222.5L135.0 222.4L133.5 222.3L132.1 222.2L130.6 222.2L129.1 222.1L127.6 222.1L126.2 222.1L124.7 222.2L123.2 222.2L121.8 222.3L120.3 222.4L118.8 222.5L117.4 222.6L115.9 222.8L114.4 223.0L112.9 223.1L111.5 223.4L110.0 223.6L108.5 223.8L107.1 224.1L105.6 224.3L104.1 224.6L102.6 224.9L101.2 225.2L99.7 225.6L98.2 225.9L96.8 226.2L95.3 226.6L93.8 227.0L92.4 227.3L90.9 227.7L89.4 228.1L87.9 228.5L86.5 228.9L85.0 229.3L83.5 229.7L82.1 230.1L80.6 230.5L79.1 230.9L77.6 231.4L76.2 231.8L74.7 232.2L73.2 232.6L71.8 233.0L70.3 233.4L68.8 233.8L67.4 234.2L65.9 234.6L64.4 235.1L62.9 235.5L61.5 235.9L60.0 236.6Z M60.0 272.4L61.5 272.4L62.9 272.3L64.4 272.1L65.9 272.0L67.4 271.8L68.8 271.6L70.3 271.3L71.8 271.1L73.2 270.8L74.7 270.5L76.2 270.1L77.6 269.8L79.1 269.4L80.6 269.0L82.1 268.6L83.5 268.2L85.0 267.7L86.5 267.3L87.9 266.8L89.4 266.3L90.9 265.9L92.4 265.3L93.8 264.8L95.3 264.3L96.8 263.8L98.2 263.2L99.7 262.7L101.2 262.1L102.6 261.6L104.1 261.0L105.6 260.4L107.1 259.9L108.5 259.3L110.0 258.7L111.5 258.1L112.9 257.6L114.4 257.0L115.9 256.4L117.4 255.9L118.8 255.3L120.3 254.8L121.8 254.2L123.2 253.7L124.7 253.1L126.2 252.6L127.6 252.1L129.1 251.6L130.6 251.1L132.1 250.6L133.5 250.1L135.0 249.7L136.5 249.3L137.9 248.8L139.4 248.4L140.9 248.0L142.4 247.6L143.8 247.3L145.3 246.9L146.8 246.6L148.2 246.3L149.7 246.0L151.2 245.8L152.6 245.5L154.1 245.3L155.6 245.1L157.1 244.9L158.5 244.8L160.0 244.6L161.5 244.5L162.9 244.5L164.4 244.4L165.9 244.4L167.4 244.4L168.8 244.4L170.3 244.4L171.8 244.5L173.2 244.6L174.7 244.7L176.2 244.8L177.6 245.0L179.1 245.2L180.6 245.4L182.1 245.7L183.5 245.9L185.0 246.2L186.5 246.6L187.9 246.9L189.4 247.3L190.9 247.7L192.4 248.1L193.8 248.5L195.3 249.0L196.8 249.5L198.2 250.0L199.7 250.6L201.2 251.1L202.6 251.7L204.1 252.3L205.6 253.0L207.1 253.6L208.5 254.3L210.0 255.0L211.5 255.7L212.9 256.4L214.4 257.1L215.9 257.9L217.4 258.7L218.8 259.4L220.3 260.2L221.8 261.1L223.2 261.9L224.7 262.7L226.2 263.6L227.6 264.5L229.1 265.3L230.6 266.2L232.1 267.1L233.5 268.0L235.0 268.9L236.5 269.8L237.9 270.7L239.4 271.7L240.9 272.6L242.4 273.5L243.8 274.4L245.3 275.4L246.8 276.3L248.2 277.2L249.7 278.1L251.2 279.0L252.6 279.9L254.1 280.8L255.6 281.7L257.1 282.6L258.5 283.6L260.0 284.5L261.5 285.4L262.9 286.2L264.4 287.1L265.9 287.9L267.4 288.8L268.8 289.6L270.3 290.4L271.8 291.3L273.2 292.1L274.7 292.9L276.2 293.7L277.6 294.5L279.1 295.3L280.6 296.0L282.1 296.8L283.5 297.5L285.0 298.2L286.5 299.0L287.9 299.8L289.4 300.5L290.9 301.1L292.4 301.8L293.8 302.4L295.3 303.3L296.8 303.9L298.2 304.5L299.7 305.0L301.2 305.5L302.6 305.8L304.1 306.3L305.6 306.7L307.1 307.0L308.5 307.3L310.0 307.8L311.5 308.1L312.9 308.3L314.4 308.4L315.9 308.5L317.4 308.6L318.8 308.6L320.3 308.6L321.8 308.5L323.2 308.4L324.7 308.0L326.2 307.7L327.6 307.5L329.1 307.2L330.6 306.8L332.1 306.8L333.5 306.4L335.0 306.0L336.5 305.5L337.9 305.0L339.4 304.5L340.9 304.0L342.4 303.5L343.8 302.9L345.3 302.3L346.8 301.3L348.2 300.7L349.7 300.2L351.2 299.6L352.6 299.0L354.1 297.9L355.6 297.3L357.1 296.7L358.5 296.1L360.0 295.6L361.5 296.0L362.9 295.5L364.4 294.9L365.9 294.4L367.4 293.9L368.8 293.9L370.3 293.4L371.8 292.9L373.2 292.4L374.7 291.9L376.2 288.9L377.6 288.4L379.1 287.8L380.6 287.2L382.1 286.6L383.5 288.5L385.0 287.9L386.5 287.3L387.9 286.6L389.4 285.8L390.9 283.0L392.4 282.1L393.8 281.2L395.3 280.3L396.8 279.3L398.2 279.8L399.7 278.8L401.2 277.7L402.6 276.6L404.1 275.4L405.6 272.6L407.1 271.3L408.5 270.0L410.0 268.7L411.5 267.3L412.9 266.8L414.4 265.4L415.9 264.0L417.4 262.6L418.8 261.2L420.3 259.0L421.8 257.6L423.2 256.2L424.7 254.9L426.2 253.6L427.6 251.4L429.1 250.2L430.6 249.0L432.1 247.9L433.5 246.9L435.0 247.0L436.5 246.2L437.9 245.4L439.4 244.7L440.9 244.1L442.4 242.6L443.8 242.2L445.3 241.9L446.8 241.7L448.2 241.6L449.7 241.6L451.2 241.7L452.6 241.9L454.1 242.2L455.6 242.6L457.1 246.5L458.5 247.0L460.0 247.6L461.5 248.3L462.9 249.1L464.4 251.1L465.9 251.9L467.4 252.8L468.8 253.7L470.3 254.6L471.8 251.8L473.2 252.7L474.7 253.6L476.2 254.5L477.6 255.4L479.1 256.2L480.6 257.0L482.1 257.7L483.5 258.5L485.0 259.1L486.5 262.3L487.9 262.9L489.4 263.4L490.9 263.9L492.4 264.3L493.8 263.3L495.3 263.6L496.8 263.8L498.2 264.0L499.7 264.1L501.2 262.9L502.6 262.9L504.1 263.0L505.6 263.0L507.1 263.0L508.5 265.8L510.0 265.8L511.5 265.8L512.9 265.8L514.4 265.8L515.9 264.5L517.4 264.6L518.8 264.8L520.3 265.0L521.8 265.2L523.2 267.0L524.7 267.4L526.2 267.9L527.6 268.4L529.1 269.0L530.6 266.8L532.1 267.6L533.5 268.4L535.0 269.4L536.5 270.4L537.9 272.9L539.4 274.1L540.9 275.3L542.4 276.5L543.8 277.8L545.3 277.7L546.8 279.1L548.2 280.5L549.7 281.9L551.2 283.3L552.6 284.7L554.1 286.1L555.6 287.4L557.1 288.7L558.5 290.0L560.0 295.8L560.0 300.8L558.5 299.8L557.1 298.6L555.6 297.5L554.1 296.2L552.6 295.0L551.2 287.7L549.7 286.4L548.2 285.1L546.8 283.8L545.3 282.5L543.8 285.8L542.4 284.5L540.9 283.4L539.4 282.2L537.9 281.2L536.5 277.2L535.0 276.3L533.5 275.5L532.1 274.7L530.6 274.0L529.1 273.4L527.6 272.9L526.2 272.4L524.7 272.0L523.2 271.7L521.8 275.8L520.3 275.6L518.8 275.4L517.4 275.4L515.9 275.3L514.4 272.5L512.9 272.5L511.5 272.6L510.0 272.6L508.5 272.7L507.1 272.8L505.6 272.9L504.1 272.9L502.6 272.9L501.2 273.0L499.7 274.3L498.2 274.2L496.8 274.1L495.3 273.9L493.8 273.7L492.4 270.8L490.9 270.5L489.4 270.1L487.9 269.6L486.5 269.2L485.0 268.6L483.5 268.0L482.1 267.4L480.6 266.7L479.1 266.0L477.6 269.0L476.2 268.2L474.7 267.4L473.2 266.5L471.8 265.7L470.3 263.6L468.8 262.7L467.4 261.9L465.9 261.1L464.4 260.4L462.9 257.3L461.5 256.6L460.0 256.0L458.5 255.5L457.1 255.0L455.6 256.9L454.1 256.6L452.6 256.3L451.2 256.2L449.7 256.1L448.2 257.3L446.8 257.4L445.3 257.6L443.8 258.0L442.4 258.4L440.9 257.9L439.4 258.5L437.9 259.2L436.5 260.0L435.0 260.9L433.5 261.9L432.1 262.9L430.6 264.1L429.1 265.3L427.6 266.5L426.2 266.9L424.7 268.2L423.2 269.6L421.8 271.0L420.3 272.4L418.8 274.8L417.4 276.2L415.9 277.7L414.4 279.2L412.9 280.6L411.5 282.9L410.0 284.3L408.5 285.6L407.1 287.0L405.6 288.3L404.1 286.3L402.6 287.6L401.2 288.8L399.7 290.0L398.2 291.1L396.8 294.5L395.3 295.5L393.8 296.4L392.4 297.3L390.9 298.2L389.4 299.1L387.9 299.9L386.5 300.6L385.0 301.4L383.5 302.1L382.1 302.1L380.6 302.7L379.1 303.4L377.6 304.0L376.2 304.6L374.7 305.8L373.2 306.4L371.8 306.9L370.3 307.5L368.8 308.1L367.4 307.0L365.9 307.6L364.4 308.2L362.9 308.8L361.5 309.5L360.0 312.1L358.5 312.7L357.1 313.3L355.6 313.9L354.1 314.5L352.6 314.2L351.2 314.9L349.7 315.5L348.2 316.2L346.8 316.8L345.3 317.4L343.8 318.1L342.4 318.7L340.9 319.3L339.4 319.8L337.9 320.0L336.5 320.6L335.0 321.1L333.5 321.6L332.1 322.0L330.6 323.4L329.1 323.7L327.6 324.0L326.2 324.3L324.7 324.6L323.2 324.5L321.8 324.6L320.3 324.7L318.8 324.8L317.4 324.8L315.9 324.3L314.4 324.2L312.9 324.1L311.5 324.0L310.0 323.8L308.5 323.9L307.1 323.6L305.6 323.3L304.1 322.9L302.6 322.5L301.2 322.0L299.7 321.5L298.2 321.0L296.8 320.4L295.3 319.9L293.8 319.2L292.4 318.6L290.9 318.0L289.4 317.3L287.9 316.6L286.5 315.6L285.0 314.9L283.5 314.1L282.1 313.4L280.6 312.6L279.1 312.2L277.6 311.4L276.2 310.6L274.7 309.7L273.2 308.9L271.8 308.0L270.3 307.2L268.8 306.3L267.4 305.5L265.9 304.6L264.4 303.8L262.9 302.9L261.5 302.0L260.0 301.1L258.5 300.2L257.1 299.2L255.6 298.3L254.1 297.4L252.6 296.5L251.2 295.5L249.7 294.6L248.2 293.7L246.8 292.8L245.3 291.8L243.8 290.9L242.4 289.9L240.9 289.0L239.4 288.0L237.9 287.1L236.5 286.1L235.0 285.2L233.5 284.2L232.1 283.3L230.6 282.4L229.1 281.5L227.6 280.6L226.2 279.7L224.7 278.8L223.2 277.9L221.8 277.0L220.3 276.2L218.8 275.3L217.4 274.5L215.9 273.7L214.4 272.9L212.9 272.1L211.5 271.4L210.0 270.6L208.5 269.9L207.1 269.2L205.6 268.5L204.1 267.8L202.6 267.2L201.2 266.5L199.7 265.9L198.2 265.4L196.8 264.8L195.3 264.3L193.8 263.7L192.4 263.2L190.9 262.8L189.4 262.3L187.9 261.9L186.5 261.5L185.0 261.1L183.5 260.8L182.1 260.5L180.6 260.2L179.1 259.9L177.6 259.6L176.2 259.4L174.7 259.2L173.2 259.0L171.8 258.9L170.3 258.8L168.8 258.7L167.4 258.6L165.9 258.6L164.4 258.5L162.9 258.5L161.5 258.6L160.0 258.6L158.5 258.7L157.1 258.8L155.6 258.9L154.1 259.0L152.6 259.2L151.2 259.3L149.7 259.5L148.2 259.8L146.8 260.0L145.3 260.3L143.8 260.5L142.4 260.8L140.9 261.1L139.4 261.5L137.9 261.8L136.5 262.2L135.0 262.5L133.5 262.9L132.1 263.3L130.6 263.7L129.1 264.1L127.6 264.6L126.2 265.0L124.7 265.4L123.2 265.9L121.8 266.4L120.3 266.8L118.8 267.3L117.4 267.8L115.9 268.3L114.4 268.8L112.9 269.2L111.5 269.7L110.0 270.2L108.5 270.7L107.1 271.2L105.6 271.7L104.1 272.1L102.6 272.6L101.2 273.1L99.7 273.5L98.2 274.0L96.8 274.4L95.3 274.9L93.8 275.3L92.4 275.7L90.9 276.1L89.4 276.5L87.9 276.9L86.5 277.2L85.0 277.6L83.5 277.9L82.1 278.2L80.6 278.5L79.1 278.8L77.6 279.0L76.2 279.3L74.7 279.5L73.2 279.7L71.8 279.8L70.3 279.9L68.8 280.0L67.4 280.1L65.9 280.1L64.4 280.1L62.9 280.0L61.5 279.9L60.0 279.6Z M60.0 317.2L61.5 318.1L62.9 318.7L64.4 319.1L65.9 319.5L67.4 319.8L68.8 320.0L70.3 320.2L71.8 320.4L73.2 320.6L74.7 320.7L76.2 320.8L77.6 320.8L79.1 320.8L80.6 320.8L82.1 320.8L83.5 320.7L85.0 320.6L86.5 320.5L87.9 320.4L89.4 320.2L90.9 320.0L92.4 319.8L93.8 319.6L95.3 319.3L96.8 319.0L98.2 318.7L99.7 318.4L101.2 318.0L102.6 317.7L104.1 317.3L105.6 316.9L107.1 316.4L108.5 316.0L110.0 315.5L111.5 315.0L112.9 314.5L114.4 314.0L115.9 313.5L117.4 313.0L118.8 312.4L120.3 311.8L121.8 311.2L123.2 310.7L124.7 310.1L126.2 309.4L127.6 308.8L129.1 308.2L130.6 307.5L132.1 306.9L133.5 306.2L135.0 305.6L136.5 304.9L137.9 304.3L139.4 303.6L140.9 302.9L142.4 302.3L143.8 301.6L145.3 300.9L146.8 300.3L148.2 299.6L149.7 298.9L151.2 298.3L152.6 297.6L154.1 297.0L155.6 296.3L157.1 295.7L158.5 295.1L160.0 294.5L161.5 293.9L162.9 293.3L164.4 292.7L165.9 292.1L167.4 291.6L168.8 291.1L170.3 290.5L171.8 290.0L173.2 289.5L174.7 289.1L176.2 288.6L177.6 288.2L179.1 287.8L180.6 287.4L182.1 287.0L183.5 286.6L185.0 286.3L186.5 286.0L187.9 285.7L189.4 285.4L190.9 285.2L192.4 285.0L193.8 284.8L195.3 284.6L196.8 284.5L198.2 284.3L199.7 284.3L201.2 284.2L202.6 284.2L204.1 284.1L205.6 284.2L207.1 284.2L208.5 284.3L210.0 284.4L211.5 284.5L212.9 284.7L214.4 284.8L215.9 285.0L217.4 285.3L218.8 285.5L220.3 285.8L221.8 286.1L223.2 286.5L224.7 286.9L226.2 287.3L227.6 287.7L229.1 288.1L230.6 288.6L232.1 289.1L233.5 289.6L235.0 290.2L236.5 290.8L237.9 291.3L239.4 292.0L240.9 292.6L242.4 293.3L243.8 293.9L245.3 294.6L246.8 295.4L248.2 296.1L249.7 296.9L251.2 297.7L252.6 298.5L254.1 299.3L255.6 300.2L257.1 301.0L258.5 301.9L260.0 302.8L261.5 303.7L262.9 304.7L264.4 305.6L265.9 306.5L267.4 307.5L268.8 308.5L270.3 309.5L271.8 310.5L273.2 311.4L274.7 312.4L276.2 313.4L277.6 314.4L279.1 315.4L280.6 316.6L282.1 317.6L283.5 318.6L285.0 319.6L286.5 320.6L287.9 321.4L289.4 322.4L290.9 323.3L292.4 324.3L293.8 325.2L295.3 326.3L296.8 327.2L298.2 328.2L299.7 329.1L301.2 330.0L302.6 331.1L304.1 332.0L305.6 332.9L307.1 333.7L308.5 334.6L310.0 335.5L311.5 336.4L312.9 337.2L314.4 338.1L315.9 339.0L317.4 340.1L318.8 340.9L320.3 341.8L321.8 342.7L323.2 343.6L324.7 343.6L326.2 344.4L327.6 345.3L329.1 346.1L330.6 346.9L332.1 347.8L333.5 348.6L335.0 349.4L336.5 350.2L337.9 351.0L339.4 352.1L340.9 352.9L342.4 353.6L343.8 354.3L345.3 355.0L346.8 356.1L348.2 356.7L349.7 357.2L351.2 357.8L352.6 358.3L354.1 359.2L355.6 359.6L357.1 359.9L358.5 360.2L360.0 360.4L361.5 360.6L362.9 360.7L364.4 360.7L365.9 360.7L367.4 360.6L368.8 358.7L370.3 358.5L371.8 358.1L373.2 357.7L374.7 357.3L376.2 357.3L377.6 356.8L379.1 356.1L380.6 355.4L382.1 354.7L383.5 353.9L385.0 353.1L386.5 352.3L387.9 351.4L389.4 350.5L390.9 350.3L392.4 349.4L393.8 348.4L395.3 347.5L396.8 346.5L398.2 344.1L399.7 343.2L401.2 342.2L402.6 341.3L404.1 340.5L405.6 340.4L407.1 339.6L408.5 338.9L410.0 338.1L411.5 337.4L412.9 336.8L414.4 336.1L415.9 335.5L417.4 335.0L418.8 334.5L420.3 335.8L421.8 335.4L423.2 335.0L424.7 334.6L426.2 334.3L427.6 334.9L429.1 334.6L430.6 334.3L432.1 334.0L433.5 333.7L435.0 330.3L436.5 330.0L437.9 329.6L439.4 329.2L440.9 328.7L442.4 331.4L443.8 330.9L445.3 330.4L446.8 329.8L448.2 329.2L449.7 326.4L451.2 325.6L452.6 324.8L454.1 324.0L455.6 323.1L457.1 323.3L458.5 322.3L460.0 321.3L461.5 320.2L462.9 319.1L464.4 316.8L465.9 315.6L467.4 314.4L468.8 313.2L470.3 311.9L471.8 308.3L473.2 307.0L474.7 305.8L476.2 304.6L477.6 303.5L479.1 307.4L480.6 306.4L482.1 305.5L483.5 304.6L485.0 303.7L486.5 301.7L487.9 301.0L489.4 300.5L490.9 300.0L492.4 299.7L493.8 296.8L495.3 296.7L496.8 296.6L498.2 296.7L499.7 297.0L501.2 297.3L502.6 297.8L504.1 298.3L505.6 299.0L507.1 299.8L508.5 302.1L510.0 303.1L511.5 304.1L512.9 305.3L514.4 306.5L515.9 309.2L517.4 310.5L518.8 311.9L520.3 313.3L521.8 314.8L523.2 316.2L524.7 317.7L526.2 319.1L527.6 320.6L529.1 322.0L530.6 319.0L532.1 320.3L533.5 321.5L535.0 322.7L536.5 323.9L537.9 329.4L539.4 330.4L540.9 331.3L542.4 332.2L543.8 333.0L545.3 332.2L546.8 332.8L548.2 333.3L549.7 333.8L551.2 334.2L552.6 334.6L554.1 334.9L555.6 335.2L557.1 335.5L558.5 335.8L560.0 336.8L560.0 342.2L558.5 340.0L557.1 339.7L555.6 339.5L554.1 339.3L552.6 339.1L551.2 335.8L549.7 335.5L548.2 335.1L546.8 334.7L545.3 334.1L543.8 336.5L542.4 335.8L540.9 335.0L539.4 334.1L537.9 333.2L536.5 332.2L535.0 331.1L533.5 330.0L532.1 328.7L530.6 327.5L529.1 327.6L527.6 326.3L526.2 324.9L524.7 323.5L523.2 322.2L521.8 317.9L520.3 316.5L518.8 315.2L517.4 313.8L515.9 312.6L514.4 309.9L512.9 308.8L511.5 307.7L510.0 306.7L508.5 305.8L507.1 309.1L505.6 308.4L504.1 307.8L502.6 307.2L501.2 306.8L499.7 306.5L498.2 306.4L496.8 306.3L495.3 306.4L493.8 306.5L492.4 304.2L490.9 304.6L489.4 305.1L487.9 305.7L486.5 306.4L485.0 308.6L483.5 309.4L482.1 310.4L480.6 311.4L479.1 312.5L477.6 316.2L476.2 317.4L474.7 318.6L473.2 319.8L471.8 321.1L470.3 319.9L468.8 321.2L467.4 322.5L465.9 323.7L464.4 324.9L462.9 328.5L461.5 329.7L460.0 330.8L458.5 331.9L457.1 332.9L455.6 332.8L454.1 333.7L452.6 334.6L451.2 335.4L449.7 336.2L448.2 335.8L446.8 336.5L445.3 337.2L443.8 337.8L442.4 338.3L440.9 336.8L439.4 337.3L437.9 337.7L436.5 338.2L435.0 338.6L433.5 342.0L432.1 342.4L430.6 342.7L429.1 343.1L427.6 343.5L426.2 344.8L424.7 345.2L423.2 345.6L421.8 346.1L420.3 346.5L418.8 344.4L417.4 344.9L415.9 345.5L414.4 346.2L412.9 346.8L411.5 346.7L410.0 347.5L408.5 348.3L407.1 349.1L405.6 350.0L404.1 354.0L402.6 354.9L401.2 355.8L399.7 356.8L398.2 357.7L396.8 357.9L395.3 358.9L393.8 359.9L392.4 360.8L390.9 361.8L389.4 360.7L387.9 361.6L386.5 362.6L385.0 363.5L383.5 364.3L382.1 367.1L380.6 367.9L379.1 368.6L377.6 369.2L376.2 369.8L374.7 369.2L373.2 369.7L371.8 370.1L370.3 370.5L368.8 370.8L367.4 371.0L365.9 371.2L364.4 371.3L362.9 371.3L361.5 371.2L360.0 370.7L358.5 370.5L357.1 370.3L355.6 370.0L354.1 369.7L352.6 369.7L351.2 369.3L349.7 368.8L348.2 368.3L346.8 367.7L345.3 367.5L343.8 366.8L342.4 366.2L340.9 365.4L339.4 364.7L337.9 364.3L336.5 363.5L335.0 362.7L333.5 361.9L332.1 361.1L330.6 360.0L329.1 359.2L327.6 358.3L326.2 357.5L324.7 356.7L323.2 355.8L321.8 355.0L320.3 354.2L318.8 353.3L317.4 352.5L315.9 352.1L314.4 351.2L312.9 350.4L311.5 349.5L310.0 348.6L308.5 347.2L307.1 346.3L305.6 345.5L304.1 344.6L302.6 343.7L301.2 342.7L299.7 341.8L298.2 340.9L296.8 340.0L295.3 339.1L293.8 338.1L292.4 337.2L290.9 336.3L289.4 335.3L287.9 334.3L286.5 333.6L285.0 332.6L283.5 331.6L282.1 330.6L280.6 329.6L279.1 328.6L277.6 327.6L276.2 326.5L274.7 325.5L273.2 324.5L271.8 323.5L270.3 322.5L268.8 321.5L267.4 320.5L265.9 319.5L264.4 318.6L262.9 317.7L261.5 316.7L260.0 315.8L258.5 314.9L257.1 313.9L255.6 313.0L254.1 312.2L252.6 311.4L251.2 310.5L249.7 309.7L248.2 309.0L246.8 308.2L245.3 307.5L243.8 306.7L242.4 306.0L240.9 305.4L239.4 304.7L237.9 304.1L236.5 303.5L235.0 302.9L233.5 302.3L232.1 301.7L230.6 301.2L229.1 300.7L227.6 300.2L226.2 299.8L224.7 299.4L223.2 299.0L221.8 298.6L220.3 298.3L218.8 297.9L217.4 297.6L215.9 297.4L214.4 297.1L212.9 296.9L211.5 296.7L210.0 296.6L208.5 296.5L207.1 296.4L205.6 296.3L204.1 296.2L202.6 296.2L201.2 296.2L199.7 296.2L198.2 296.3L196.8 296.4L195.3 296.5L193.8 296.6L192.4 296.8L190.9 297.0L189.4 297.2L187.9 297.4L186.5 297.6L185.0 297.9L183.5 298.2L182.1 298.5L180.6 298.9L179.1 299.2L177.6 299.6L176.2 300.0L174.7 300.4L173.2 300.8L171.8 301.3L170.3 301.7L168.8 302.2L167.4 302.7L165.9 303.2L164.4 303.7L162.9 304.3L161.5 304.8L160.0 305.4L158.5 305.9L157.1 306.5L155.6 307.1L154.1 307.7L152.6 308.3L151.2 308.9L149.7 309.5L148.2 310.1L146.8 310.7L145.3 311.3L143.8 311.9L142.4 312.5L140.9 313.2L139.4 313.8L137.9 314.4L136.5 315.0L135.0 315.6L133.5 316.2L132.1 316.8L130.6 317.4L129.1 318.0L127.6 318.5L126.2 319.1L124.7 319.7L123.2 320.2L121.8 320.7L120.3 321.2L118.8 321.8L117.4 322.2L115.9 322.7L114.4 323.2L112.9 323.6L111.5 324.1L110.0 324.5L108.5 324.9L107.1 325.3L105.6 325.6L104.1 326.0L102.6 326.3L101.2 326.6L99.7 326.8L98.2 327.1L96.8 327.3L95.3 327.5L93.8 327.7L92.4 327.9L90.9 328.0L89.4 328.1L87.9 328.2L86.5 328.3L85.0 328.3L83.5 328.3L82.1 328.3L80.6 328.2L79.1 328.1L77.6 328.0L76.2 327.9L74.7 327.7L73.2 327.5L71.8 327.2L70.3 327.0L68.8 326.6L67.4 326.2L65.9 325.8L64.4 325.3L62.9 324.7L61.5 324.0L60.0 322.8Z"></path>
    <linearGradient id="fade" gradientUnits="userSpaceOnUse" x1="235.0" y1="0" x2="560.0" y2="0">
      <stop offset="0" stop-color="#000"></stop><stop offset="1" stop-color="#fff"></stop>
    </linearGradient>
    <mask id="right"><rect x="20.0" y="-6.0" width="626.0" height="451.2" fill="url(#fade)"></rect></mask>
    <pattern id="sl" width="6" height="6" patternUnits="userSpaceOnUse"><rect width="6" height="3.4" fill="#fff"></rect></pattern>
    <mask id="lines"><rect x="20.0" y="-6.0" width="626.0" height="451.2" fill="url(#sl)"></rect></mask>
    <filter id="glow" x="-20%" y="-40%" width="150%" height="200%">
      <feGaussianBlur stdDeviation="10" result="a"></feGaussianBlur><feGaussianBlur stdDeviation="26" result="b"></feGaussianBlur>
      <feMerge><feMergeNode in="b"></feMergeNode><feMergeNode in="a"></feMergeNode></feMerge>
    </filter>
  </defs>
  <rect x="20.0" y="-6.0" width="626.0" height="451.2" fill="#04040a"></rect>
  <g fill="#3a6ea5" opacity="0.85" filter="url(#glow)"><use href="#b"></use></g>
  <g mask="url(#lines)">
    <g fill="#3a6ea5" mask="url(#right)">
    <use href="#b" transform="translate(6.6 0.7)" opacity="0.257"></use>
    <use href="#b" transform="translate(13.1 1.4)" opacity="0.214"></use>
    <use href="#b" transform="translate(19.7 2.1)" opacity="0.171"></use>
    <use href="#b" transform="translate(26.3 2.9)" opacity="0.129"></use>
    <use href="#b" transform="translate(32.9 3.6)" opacity="0.086"></use>
    <use href="#b" transform="translate(39.4 4.3)" opacity="0.043"></use>
    <use href="#b" transform="translate(46.0 5.0)" opacity="0.000"></use>
    </g>
    <g fill="#f0ede6"><use href="#b"></use></g>
  </g>
</svg>