<svg width="1600" height="1099" viewBox="46.0 26.8 508.0 349.0" xmlns="http://www.w3.org/2000/svg" xmlns:c2pa="http://c2pa.org/manifest"><metadata><c2pa:manifest>AAAWgmp1bWIAAAAeanVtZGMycGEAEQAQgAAAqgA4m3EDYzJwYQAAABZcanVtYgAAAEdqdW1kYzJtYQARABCAAACqADibcQN1cm46YzJwYTowOWUwMGFiZC04ZDUwLTRiMjUtYTRmZi1lMTRjNzNkZmVmYzEAAAADl2p1bWIAAAApanVtZGMyYXMAEQAQgAAAqgA4m3EDYzJwYS5hc3NlcnRpb25zAAAAALxqdW1iAAAARGp1bWRjYm9yABEAEIAAAKoAOJtxE2MycGEuaW5ncmVkaWVudC52MwAAAAAYYzJzaB/ci1R1cYaHnTT05X4MQWkAAABwY2JvcqNpZGM6Zm9ybWF0bWltYWdlL3N2Zyt4bWxqaW5zdGFuY2VJRHgseG1wOmlpZDo2YWU0ZWUxMi03ZGY5LTQ1NzAtYjQ5NS1lMGIyOGRjNTA4NDdscmVsYXRpb25zaGlwaHBhcmVudE9mAAAB4mp1bWIAAABBanVtZGNib3IAEQAQgAAAqgA4m3ETYzJwYS5hY3Rpb25zLnYyAAAAABhjMnNo+l7N8sAzUchJlBwN19/W/QAAAZljYm9yomdhY3Rpb25zgqJmYWN0aW9ua2MycGEub3BlbmVkanBhcmFtZXRlcnOha2luZ3JlZGllbnRzgaJjdXJseC1zZWxmI2p1bWJmPWMycGEuYXNzZXJ0aW9ucy9jMnBhLmluZ3JlZGllbnQudjNkaGFzaFggmtpi2k9/Yma2VT54JNvQjQSgzr+BB2UW9psN2iODr2ikZmFjdGlvbngdY29tLmFudGhyb3BpYy5jbGF1ZGUucHJvdmlkZWRqcGFyYW1ldGVyc6F4H2NvbS5hbnRocm9waWMub3JpZ2luLWNvbmZpZGVuY2VndW5rbm93bmtkZXNjcmlwdGlvbnhmQ2xhdWRlIHByb3ZpZGVkIHRoaXMgZmlsZSBhdCB0aGUgcmVxdWVzdCBvZiBhIHVzZXIgYW5kIG1heSBoYXZlIGNyZWF0ZWQgb3IgbW9kaWZpZWQgdGhlIGZpbGUgY29udGVudHMubXNvZnR3YXJlQWdlbnShZG5hbWVmQ2xhdWRlcmFsbEFjdGlvbnNJbmNsdWRlZPUAAADIanVtYgAAAEBqdW1kY2JvcgARABCAAACqADibcRNjMnBhLmhhc2guZGF0YQAAAAAYYzJzaARulOSI1a6xgHCW8tNEMw8AAACAY2JvcqVjYWxnZnNoYTI1NmNwYWRNAAAAAAAAAAAAAAAAAGRoYXNoWCAHVkuqxmWhhxRWUp25xhDdakT6+Jd0MpcKolvVUnoft2RuYW1lbmp1bWJmIG1hbmlmZXN0amV4Y2x1c2lvbnOBomVzdGFydBiiZmxlbmd0aBkeBAAAAj5qdW1iAAAAJ2p1bWRjMmNsABEAEIAAAKoAOJtxA2MycGEuY2xhaW0udjIAAAACD2Nib3KlY2FsZ2ZzaGEyNTZpc2lnbmF0dXJleE1zZWxmI2p1bWJmPS9jMnBhL3VybjpjMnBhOjA5ZTAwYWJkLThkNTAtNGIyNS1hNGZmLWUxNGM3M2RmZWZjMS9jMnBhLnNpZ25hdHVyZWppbnN0YW5jZUlEeCx4bXA6aWlkOjRjYTQ0MGZjLTEwOWMtNDEwYy05NjQ4LTc0MjY0ZThjMGYzZHJjcmVhdGVkX2Fzc2VydGlvbnODomN1cmx4LXNlbGYjanVtYmY9YzJwYS5hc3NlcnRpb25zL2MycGEuaW5ncmVkaWVudC52M2RoYXNoWCCa2mLaT39iZrZVPngk29CNBKDOv4EHZRb2mw3aI4OvaKJjdXJseCpzZWxmI2p1bWJmPWMycGEuYXNzZXJ0aW9ucy9jMnBhLmFjdGlvbnMudjJkaGFzaFgg2GC6qkhet2lT3LvXe/9cLQhtKCTAr3MLDs0xxnf9pMOiY3VybHgpc2VsZiNqdW1iZj1jMnBhLmFzc2VydGlvbnMvYzJwYS5oYXNoLmRhdGFkaGFzaFggBt5/IAxfkFt5cE0g580spY3fCm7rKqD6Ag9sN2k0rOJ0Y2xhaW1fZ2VuZXJhdG9yX2luZm+jZG5hbWVvQW50aHJvcGljIEZpbGVzZ3ZlcnNpb25lMS4wLjBrc3BlY1ZlcnNpb25lMi40LjAAABA4anVtYgAAAChqdW1kYzJjcwARABCAAACqADibcQNjMnBhLnNpZ25hdHVyZQAAABAIY2JvctKEWQISogEmGCFZAgowggIGMIIBjaADAgECAhRA5aAK7sI50L64g/oGQgU9Z1UTADAKBggqhkjOPQQDAzBJMRcwFQYDVQQKEw5BbnRocm9waWMsIFBCQzEuMCwGA1UEAxMlQW50aHJvcGljIENvbnRlbnQgQ3JlZGVudGlhbHMgUm9vdCBDQTAeFw0yNjA4MDcxODQzNTZaFw0yODA4MDYxOTQzNTZaMEQxFzAVBgNVBAoTDkFudGhyb3BpYywgUEJDMSkwJwYDVQQDEyBBbnRocm9waWMgQ2xhdWRlIENvbnRlbnQgU2lnbmluZzBZMBMGByqGSM49AgEGCCqGSM49AwEHA0IABJh6CmvLUBgFFNU0vUKlOVtE6djd17L5SuwX0LemFisBM3dkd/3cyjxFA3Qo5S46fX0/ihY0VZ7mfb9KF703t5OjWDBWMA4GA1UdDwEB/wQEAwIHgDAVBgNVHSUEDjAMBgorBgEEAYPoXgIBMAwGA1UdEwEB/wQCMAAwHwYDVR0jBBgwFoAUzlHiBIFOZFsj+OPEz5o+nMHXXMIwCgYIKoZIzj0EAwMDZwAwZAIwMXMdFJ4BetLLVY7ORuE9noqbbAZOZn/aArXyTwFAZfKrPzxF2vPoJNf1+UCdg1XGAjBwX1zd9WGqYkqmL5SFqw1QySjr1zJfpJM9+1rdDwSPLMOPOjKuiXjoU/pUUeG9RwmhY3BhZFkNngAAAAAAAAAAAAAAAAAAAAAAAAAAAAAAAAAAAAAAAAAAAAAAAAAAAAAAAAAAAAAAAAAAAAAAAAAAAAAAAAAAAAAAAAAAAAAAAAAAAAAAAAAAAAAAAAAAAAAAAAAAAAAAAAAAAAAAAAAAAAAAAAAAAAAAAAAAAAAAAAAAAAAAAAAAAAAAAAAAAAAAAAAAAAAAAAAAAAAAAAAAAAAAAAAAAAAAAAAAAAAAAAAAAAAAAAAAAAAAAAAAAAAAAAAAAAAAAAAAAAAAAAAAAAAAAAAAAAAAAAAAAAAAAAAAAAAAAAAAAAAAAAAAAAAAAAAAAAAAAAAAAAAAAAAAAAAAAAAAAAAAAAAAAAAAAAAAAAAAAAAAAAAAAAAAAAAAAAAAAAAAAAAAAAAAAAAAAAAAAAAAAAAAAAAAAAAAAAAAAAAAAAAAAAAAAAAAAAAAAAAAAAAAAAAAAAAAAAAAAAAAAAAAAAAAAAAAAAAAAAAAAAAAAAAAAAAAAAAAAAAAAAAAAAAAAAAAAAAAAAAAAAAAAAAAAAAAAAAAAAAAAAAAAAAAAAAAAAAAAAAAAAAAAAAAAAAAAAAAAAAAAAAAAAAAAAAAAAAAAAAAAAAAAAAAAAAAAAAAAAAAAAAAAAAAAAAAAAAAAAAAAAAAAAAAAAAAAAAAAAAAAAAAAAAAAAAAAAAAAAAAAAAAAAAAAAAAAAAAAAAAAAAAAAAAAAAAAAAAAAAAAAAAAAAAAAAAAAAAAAAAAAAAAAAAAAAAAAAAAAAAAAAAAAAAAAAAAAAAAAAAAAAAAAAAAAAAAAAAAAAAAAAAAAAAAAAAAAAAAAAAAAAAAAAAAAAAAAAAAAAAAAAAAAAAAAAAAAAAAAAAAAAAAAAAAAAAAAAAAAAAAAAAAAAAAAAAAAAAAAAAAAAAAAAAAAAAAAAAAAAAAAAAAAAAAAAAAAAAAAAAAAAAAAAAAAAAAAAAAAAAAAAAAAAAAAAAAAAAAAAAAAAAAAAAAAAAAAAAAAAAAAAAAAAAAAAAAAAAAAAAAAAAAAAAAAAAAAAAAAAAAAAAAAAAAAAAAAAAAAAAAAAAAAAAAAAAAAAAAAAAAAAAAAAAAAAAAAAAAAAAAAAAAAAAAAAAAAAAAAAAAAAAAAAAAAAAAAAAAAAAAAAAAAAAAAAAAAAAAAAAAAAAAAAAAAAAAAAAAAAAAAAAAAAAAAAAAAAAAAAAAAAAAAAAAAAAAAAAAAAAAAAAAAAAAAAAAAAAAAAAAAAAAAAAAAAAAAAAAAAAAAAAAAAAAAAAAAAAAAAAAAAAAAAAAAAAAAAAAAAAAAAAAAAAAAAAAAAAAAAAAAAAAAAAAAAAAAAAAAAAAAAAAAAAAAAAAAAAAAAAAAAAAAAAAAAAAAAAAAAAAAAAAAAAAAAAAAAAAAAAAAAAAAAAAAAAAAAAAAAAAAAAAAAAAAAAAAAAAAAAAAAAAAAAAAAAAAAAAAAAAAAAAAAAAAAAAAAAAAAAAAAAAAAAAAAAAAAAAAAAAAAAAAAAAAAAAAAAAAAAAAAAAAAAAAAAAAAAAAAAAAAAAAAAAAAAAAAAAAAAAAAAAAAAAAAAAAAAAAAAAAAAAAAAAAAAAAAAAAAAAAAAAAAAAAAAAAAAAAAAAAAAAAAAAAAAAAAAAAAAAAAAAAAAAAAAAAAAAAAAAAAAAAAAAAAAAAAAAAAAAAAAAAAAAAAAAAAAAAAAAAAAAAAAAAAAAAAAAAAAAAAAAAAAAAAAAAAAAAAAAAAAAAAAAAAAAAAAAAAAAAAAAAAAAAAAAAAAAAAAAAAAAAAAAAAAAAAAAAAAAAAAAAAAAAAAAAAAAAAAAAAAAAAAAAAAAAAAAAAAAAAAAAAAAAAAAAAAAAAAAAAAAAAAAAAAAAAAAAAAAAAAAAAAAAAAAAAAAAAAAAAAAAAAAAAAAAAAAAAAAAAAAAAAAAAAAAAAAAAAAAAAAAAAAAAAAAAAAAAAAAAAAAAAAAAAAAAAAAAAAAAAAAAAAAAAAAAAAAAAAAAAAAAAAAAAAAAAAAAAAAAAAAAAAAAAAAAAAAAAAAAAAAAAAAAAAAAAAAAAAAAAAAAAAAAAAAAAAAAAAAAAAAAAAAAAAAAAAAAAAAAAAAAAAAAAAAAAAAAAAAAAAAAAAAAAAAAAAAAAAAAAAAAAAAAAAAAAAAAAAAAAAAAAAAAAAAAAAAAAAAAAAAAAAAAAAAAAAAAAAAAAAAAAAAAAAAAAAAAAAAAAAAAAAAAAAAAAAAAAAAAAAAAAAAAAAAAAAAAAAAAAAAAAAAAAAAAAAAAAAAAAAAAAAAAAAAAAAAAAAAAAAAAAAAAAAAAAAAAAAAAAAAAAAAAAAAAAAAAAAAAAAAAAAAAAAAAAAAAAAAAAAAAAAAAAAAAAAAAAAAAAAAAAAAAAAAAAAAAAAAAAAAAAAAAAAAAAAAAAAAAAAAAAAAAAAAAAAAAAAAAAAAAAAAAAAAAAAAAAAAAAAAAAAAAAAAAAAAAAAAAAAAAAAAAAAAAAAAAAAAAAAAAAAAAAAAAAAAAAAAAAAAAAAAAAAAAAAAAAAAAAAAAAAAAAAAAAAAAAAAAAAAAAAAAAAAAAAAAAAAAAAAAAAAAAAAAAAAAAAAAAAAAAAAAAAAAAAAAAAAAAAAAAAAAAAAAAAAAAAAAAAAAAAAAAAAAAAAAAAAAAAAAAAAAAAAAAAAAAAAAAAAAAAAAAAAAAAAAAAAAAAAAAAAAAAAAAAAAAAAAAAAAAAAAAAAAAAAAAAAAAAAAAAAAAAAAAAAAAAAAAAAAAAAAAAAAAAAAAAAAAAAAAAAAAAAAAAAAAAAAAAAAAAAAAAAAAAAAAAAAAAAAAAAAAAAAAAAAAAAAAAAAAAAAAAAAAAAAAAAAAAAAAAAAAAAAAAAAAAAAAAAAAAAAAAAAAAAAAAAAAAAAAAAAAAAAAAAAAAAAAAAAAAAAAAAAAAAAAAAAAAAAAAAAAAAAAAAAAAAAAAAAAAAAAAAAAAAAAAAAAAAAAAAAAAAAAAAAAAAAAAAAAAAAAAAAAAAAAAAAAAAAAAAAAAAAAAAAAAAAAAAAAAAAAAAAAAAAAAAAAAAAAAAAAAAAAAAAAAAAAAAAAAAAAAAAAAAAAAAAAAAAAAAAAAAAAAAAAAAAAAAAAAAAAAAAAAAAAAAAAAAAAAAAAAAAAAAAAAAAAAAAAAAAAAAAAAAAAAAAAAAAAAAAAAAAAAAAAAAAAAAAAAAAAAAAAAAAAAAAAAAAAAAAAAAAAAAAAAAAAAAAAAAAAAAAAAAAAAAAAAAAAAAAAAAAAAAAAAAAAAAAAAAAAAAAAAAAAAAAAAAAAAAAAAAAAAAAAAAAAAAAAAAAAAAAAAAAAAAAAAAAAAAAAAAAAAAAAAAAAAAAAAAAAAAAAAAAAAAAAAAAAAAAAAAAAAAAAAAAAAAAAAAAAAAAAAAAAAAAAAAAAAAAAAAAAAAAAAAAAAAAAAAAAAAAAAAAAAAAAAAAAAAAAAAAAAAAAAAAAAAAAAAAAAAAAAAAAAAAAAAAAAAAAAAAAAAAAAAAAAAAAAAAAAAAAAAAAAAAAAAAAAAAAAAAAAAAAAAAAAAAAAAAAAAAAAAAAAAAAAAAAAAAAAAAAAAAAAAAAAAAAAAAAAAAAAAAAAAAAAAAAAAAAAAAAAAAAAAAAAAAAAAAAAAAAAAAAAAAAAAAAAAAAAAAAAAAAAAAAAAAAAAAAAAAAAAAAAAAAAAAAAAAAAAAAAAAAAAAAAAAAAAAAAAAAAAAAAAAAAAAAAAAAAAAAAAAAAAAAAAAAAAAAAAAAAAAAAAAAAAAAAAAAAAAAAAAAAAAAAAAAAAAAAAAAAAAAAAAAAAAAAAAAAAAAAAAAAAAAAAAAAAAAAAAAAAAAAAAAAAAAAAAAAAAAAAAAAAAAAAAAAAAAAAAAAAAAAAAAAAAAAAAAAAAAAAAAAAAAAAAAAAAAAAAAAAAAAAAAAAAAAAAAAAAAAAAAAAAAAAAAAAAAAAAAAAAAAAAAAAAAAAAAAAAAAAAAAAAAAAAAAAAAAAAAAAAAAAAAAAAAAAAAAAAAAAAAAAAAAAAAAAAAAAAAAAAAAAAAAAAAAAAAAAAAAAAAAAAAAAAAAAAAAAAAAAAAAAAAAAAAAAAAAAAAAAAAAAAAAAAAAAAAAAAAAAAAAAAAAAAAAAAAAAAAAAAAAAAAAAAAAAAAAAAAAAAAAAAAAAAAAAAAAAAAAAAAAAAAAAAAAAAAAAAAAAAAAAAAAAAAAAAAAAAAAAAAAAAAAAAAAAAAAAAAAAAAAAAAAAAAAAAAAAAAAAAAAAAAAAAAAAAAAAAAAAAAAAAAAAAAAAAAAAAAAAAAAAAAAAAAAAAAAAAAAAAAAAAAAAAAAAAAAAAAAAAAAAAAAAAAAAAAAAAAAAAAAAAAAAAAAAAAAAAAAAAAAAAAAAAAAAAAAAAAAAAAAAAAAAAAAAAAAAAAAAAAAAAAAAAAAAAAAAAAAAAAAAAAAAAAAAAAAAAAAAAAAAAAAAAAAAAAAAAAAAAAAAAAAAAAAAAAAAAAAAAAAAAAAAAAAAAAAAAAAAAAAAAAAAAAAAAAAAAAAAAAAAAAAAAAAAAAAAAAAAAAAAAAAAAAAAAAAAAAAAAAAAAAAAAAAAAAAAAAAAAAAAAAAAAAAAAAAAAAAAAAAAAAAPZYQAaKUwzIVU60sPQkxIzXhrVwtyG7enTly2cWUhpHtUWpWpwSjOU1wAJyQGUIPBX8FDAHXak8Cwekv4KpaCYOCVs=</c2pa:manifest></metadata>
  <rect x="46.0" y="26.8" width="508.0" height="349.0" fill="#e9e4da"></rect>
  <path fill="#141414" fill-rule="evenodd" shape-rendering="crispEdges" d="M60.0 90.3L61.5 89.9L63.0 89.6L64.5 89.5L66.0 89.4L67.5 89.4L69.0 89.4L70.5 89.4L72.0 89.5L73.5 89.6L75.0 89.8L76.5 89.9L78.0 90.1L79.5 90.4L81.0 90.6L82.5 90.9L84.0 91.2L85.5 91.5L87.0 91.8L88.5 92.1L90.0 92.5L91.5 92.8L93.0 93.2L94.5 93.6L96.0 94.0L97.5 94.4L99.0 94.8L100.5 95.2L102.0 95.6L103.5 96.0L105.0 96.4L106.5 96.9L108.0 97.3L109.5 97.7L111.0 98.1L112.5 98.5L114.0 98.9L115.5 99.3L117.0 99.7L118.5 100.1L120.0 100.5L121.5 100.9L123.0 101.2L124.5 101.6L126.0 101.9L127.5 102.2L129.0 102.6L130.5 102.8L132.0 103.1L133.5 103.4L135.0 103.6L136.5 103.8L138.0 104.0L139.5 104.2L141.0 104.4L142.5 104.5L144.0 104.7L145.5 104.8L147.0 104.8L148.5 104.9L150.0 104.9L151.5 104.9L153.0 104.9L154.5 104.8L156.0 104.7L157.5 104.6L159.0 104.5L160.5 104.4L162.0 104.2L163.5 104.0L165.0 103.7L166.5 103.5L168.0 103.2L169.5 102.8L171.0 102.5L172.5 102.1L174.0 101.7L175.5 101.3L177.0 100.8L178.5 100.4L180.0 99.8L181.5 99.3L183.0 98.7L184.5 98.2L186.0 97.5L187.5 96.9L189.0 96.2L190.5 95.6L192.0 94.9L193.5 94.1L195.0 93.4L196.5 92.6L198.0 91.8L199.5 91.0L201.0 90.2L202.5 89.3L204.0 88.4L205.5 87.5L207.0 86.6L208.5 85.7L210.0 84.8L211.5 83.8L213.0 82.9L214.5 81.9L216.0 80.9L217.5 79.9L219.0 78.9L220.5 77.9L222.0 76.9L223.5 75.9L225.0 74.9L226.5 73.9L228.0 72.8L229.5 71.8L231.0 70.8L232.5 69.8L234.0 68.7L235.5 67.7L237.0 66.7L238.5 65.7L240.0 64.7L241.5 63.7L243.0 62.7L244.5 61.7L246.0 60.7L247.5 59.8L249.0 58.8L250.5 57.9L252.0 57.0L253.5 56.1L255.0 55.3L256.5 54.4L258.0 53.6L259.5 52.8L261.0 52.0L262.5 51.3L264.0 50.5L265.5 49.8L267.0 49.1L268.5 48.4L270.0 47.6L271.5 46.9L273.0 46.3L274.5 45.8L276.0 45.2L277.5 44.8L279.0 44.3L280.5 43.9L282.0 43.5L283.5 43.1L285.0 42.6L286.5 42.3L288.0 42.0L289.5 41.7L291.0 41.5L292.5 41.3L294.0 41.1L295.5 41.0L297.0 40.9L298.5 40.8L300.0 40.8L301.5 40.8L303.0 40.9L304.5 40.9L306.0 41.0L307.5 40.9L309.0 41.1L310.5 41.3L312.0 41.6L313.5 41.8L315.0 43.3L316.5 43.7L318.0 44.1L319.5 44.5L321.0 45.0L322.5 44.5L324.0 45.0L325.5 45.5L327.0 46.1L328.5 46.7L330.0 47.3L331.5 47.9L333.0 48.6L334.5 49.3L336.0 50.0L337.5 51.6L339.0 52.4L340.5 53.2L342.0 54.0L343.5 54.9L345.0 54.3L346.5 55.2L348.0 56.0L349.5 56.9L351.0 57.8L352.5 60.3L354.0 61.3L355.5 62.3L357.0 63.3L358.5 64.3L360.0 64.7L361.5 65.7L363.0 66.7L364.5 67.7L366.0 68.7L367.5 70.4L369.0 71.4L370.5 72.5L372.0 73.5L373.5 74.5L375.0 74.2L376.5 75.2L378.0 76.2L379.5 77.2L381.0 78.2L382.5 80.7L384.0 81.7L385.5 82.7L387.0 83.7L388.5 84.6L390.0 84.0L391.5 84.9L393.0 85.8L394.5 86.7L396.0 87.6L397.5 89.3L399.0 90.2L400.5 91.0L402.0 91.8L403.5 92.6L405.0 91.6L406.5 92.3L408.0 93.0L409.5 93.7L411.0 94.4L412.5 96.9L414.0 97.5L415.5 98.2L417.0 98.7L418.5 99.3L420.0 99.8L421.5 100.4L423.0 100.8L424.5 101.3L426.0 101.7L427.5 102.1L429.0 102.5L430.5 102.8L432.0 103.2L433.5 103.5L435.0 101.5L436.5 101.7L438.0 101.9L439.5 102.1L441.0 102.2L442.5 105.8L444.0 105.9L445.5 106.0L447.0 106.1L448.5 106.1L450.0 103.7L451.5 103.7L453.0 103.6L454.5 103.5L456.0 103.4L457.5 105.8L459.0 105.6L460.5 105.5L462.0 105.3L463.5 105.1L465.0 106.2L466.5 106.0L468.0 105.7L469.5 105.5L471.0 105.2L472.5 103.6L474.0 103.3L475.5 102.9L477.0 102.6L478.5 102.2L480.0 97.8L481.5 97.4L483.0 97.0L484.5 96.6L486.0 96.2L487.5 95.8L489.0 95.3L490.5 94.9L492.0 94.5L493.5 94.0L495.0 96.4L496.5 96.0L498.0 95.6L499.5 95.2L501.0 94.8L502.5 95.8L504.0 95.4L505.5 95.0L507.0 94.6L508.5 94.3L510.0 91.0L511.5 90.6L513.0 90.3L514.5 90.0L516.0 89.7L517.5 90.9L519.0 90.6L520.5 90.4L522.0 90.1L523.5 89.9L525.0 89.8L526.5 89.6L528.0 89.5L529.5 89.4L531.0 89.4L532.5 86.4L534.0 86.4L535.5 86.5L537.0 86.6L538.5 86.9L540.0 91.8L540.0 112.7L538.5 107.2L537.0 107.6L535.5 108.1L534.0 108.5L532.5 108.9L531.0 110.9L529.5 111.3L528.0 111.8L526.5 112.3L525.0 112.9L523.5 117.9L522.0 118.4L520.5 119.0L519.0 119.5L517.5 120.1L516.0 117.8L514.5 118.4L513.0 119.0L511.5 119.6L510.0 120.3L508.5 122.4L507.0 123.0L505.5 123.7L504.0 124.4L502.5 125.0L501.0 125.7L499.5 126.4L498.0 127.1L496.5 127.7L495.0 128.4L493.5 129.1L492.0 129.7L490.5 130.4L489.0 131.0L487.5 131.7L486.0 132.3L484.5 133.0L483.0 133.6L481.5 134.2L480.0 134.8L478.5 131.3L477.0 131.9L475.5 132.5L474.0 133.1L472.5 133.6L471.0 135.5L469.5 136.0L468.0 136.5L466.5 137.0L465.0 137.4L463.5 139.1L462.0 139.5L460.5 139.9L459.0 140.3L457.5 140.6L456.0 138.4L454.5 138.7L453.0 139.0L451.5 139.3L450.0 139.5L448.5 139.7L447.0 139.9L445.5 140.0L444.0 140.1L442.5 140.2L441.0 140.3L439.5 140.3L438.0 140.3L436.5 140.3L435.0 140.2L433.5 143.4L432.0 143.3L430.5 143.1L429.0 142.9L427.5 142.7L426.0 141.4L424.5 141.1L423.0 140.8L421.5 140.5L420.0 140.1L418.5 140.7L417.0 140.3L415.5 139.8L414.0 139.3L412.5 138.8L411.0 136.4L409.5 135.8L408.0 135.3L406.5 134.7L405.0 134.1L403.5 133.4L402.0 132.8L400.5 132.1L399.0 131.4L397.5 130.7L396.0 130.8L394.5 130.0L393.0 129.2L391.5 128.4L390.0 127.6L388.5 126.7L387.0 125.9L385.5 125.0L384.0 124.1L382.5 123.2L381.0 121.6L379.5 120.7L378.0 119.8L376.5 118.9L375.0 118.0L373.5 118.4L372.0 117.4L370.5 116.5L369.0 115.5L367.5 114.6L366.0 111.8L364.5 110.8L363.0 109.9L361.5 109.0L360.0 108.1L358.5 107.2L357.0 106.3L355.5 105.4L354.0 104.5L352.5 103.7L351.0 102.8L349.5 102.0L348.0 101.1L346.5 100.3L345.0 99.5L343.5 100.1L342.0 99.3L340.5 98.5L339.0 97.8L337.5 97.0L336.0 95.1L334.5 94.4L333.0 93.8L331.5 93.1L330.0 92.5L328.5 93.1L327.0 92.5L325.5 91.9L324.0 91.4L322.5 90.9L321.0 89.8L319.5 89.4L318.0 89.0L316.5 88.7L315.0 88.3L313.5 88.3L312.0 88.0L310.5 87.8L309.0 87.6L307.5 87.4L306.0 86.8L304.5 86.7L303.0 86.6L301.5 86.6L300.0 86.6L298.5 86.6L297.0 86.7L295.5 86.8L294.0 86.9L292.5 87.1L291.0 87.7L289.5 88.0L288.0 88.2L286.5 88.5L285.0 88.8L283.5 88.8L282.0 89.2L280.5 89.6L279.0 90.0L277.5 90.5L276.0 91.0L274.5 91.5L273.0 92.1L271.5 92.6L270.0 93.2L268.5 93.8L267.0 94.4L265.5 95.1L264.0 95.8L262.5 96.5L261.0 97.3L259.5 98.0L258.0 98.8L256.5 99.6L255.0 100.4L253.5 101.3L252.0 102.1L250.5 103.0L249.0 103.8L247.5 104.7L246.0 105.6L244.5 106.5L243.0 107.4L241.5 108.3L240.0 109.3L238.5 110.2L237.0 111.1L235.5 112.0L234.0 113.0L232.5 113.9L231.0 114.9L229.5 115.8L228.0 116.8L226.5 117.7L225.0 118.6L223.5 119.6L222.0 120.5L220.5 121.4L219.0 122.3L217.5 123.2L216.0 124.1L214.5 125.0L213.0 125.9L211.5 126.7L210.0 127.6L208.5 128.4L207.0 129.2L205.5 130.0L204.0 130.8L202.5 131.5L201.0 132.2L199.5 133.0L198.0 133.6L196.5 134.3L195.0 135.0L193.5 135.6L192.0 136.2L190.5 136.8L189.0 137.3L187.5 137.9L186.0 138.4L184.5 138.8L183.0 139.3L181.5 139.7L180.0 140.1L178.5 140.5L177.0 140.8L175.5 141.1L174.0 141.4L172.5 141.6L171.0 141.9L169.5 142.0L168.0 142.2L166.5 142.3L165.0 142.4L163.5 142.5L162.0 142.6L160.5 142.6L159.0 142.6L157.5 142.5L156.0 142.5L154.5 142.4L153.0 142.2L151.5 142.1L150.0 141.9L148.5 141.7L147.0 141.5L145.5 141.2L144.0 140.9L142.5 140.6L141.0 140.3L139.5 139.9L138.0 139.5L136.5 139.1L135.0 138.7L133.5 138.3L132.0 137.8L130.5 137.3L129.0 136.8L127.5 136.3L126.0 135.7L124.5 135.2L123.0 134.6L121.5 134.0L120.0 133.4L118.5 132.8L117.0 132.2L115.5 131.6L114.0 131.0L112.5 130.3L111.0 129.7L109.5 129.0L108.0 128.3L106.5 127.7L105.0 127.0L103.5 126.3L102.0 125.6L100.5 124.9L99.0 124.3L97.5 123.6L96.0 122.9L94.5 122.3L93.0 121.6L91.5 120.9L90.0 120.3L88.5 119.6L87.0 119.0L85.5 118.4L84.0 117.8L82.5 117.2L81.0 116.6L79.5 116.0L78.0 115.4L76.5 114.9L75.0 114.3L73.5 113.8L72.0 113.3L70.5 112.8L69.0 112.4L67.5 111.9L66.0 111.5L64.5 111.1L63.0 110.6L61.5 110.2L60.0 109.7Z M60.0 136.5L61.5 135.1L63.0 134.2L64.5 133.6L66.0 133.0L67.5 132.5L69.0 132.1L70.5 131.7L72.0 131.4L73.5 131.1L75.0 130.9L76.5 130.7L78.0 130.5L79.5 130.4L81.0 130.4L82.5 130.3L84.0 130.3L85.5 130.3L87.0 130.4L88.5 130.5L90.0 130.6L91.5 130.7L93.0 130.9L94.5 131.1L96.0 131.3L97.5 131.5L99.0 131.8L100.5 132.1L102.0 132.4L103.5 132.7L105.0 133.1L106.5 133.5L108.0 133.9L109.5 134.3L111.0 134.7L112.5 135.2L114.0 135.6L115.5 136.1L117.0 136.6L118.5 137.1L120.0 137.6L121.5 138.2L123.0 138.7L124.5 139.3L126.0 139.8L127.5 140.4L129.0 141.0L130.5 141.5L132.0 142.1L133.5 142.7L135.0 143.3L136.5 143.9L138.0 144.5L139.5 145.0L141.0 145.6L142.5 146.2L144.0 146.8L145.5 147.3L147.0 147.9L148.5 148.4L150.0 149.0L151.5 149.5L153.0 150.0L154.5 150.5L156.0 151.0L157.5 151.5L159.0 152.0L160.5 152.4L162.0 152.9L163.5 153.3L165.0 153.7L166.5 154.1L168.0 154.4L169.5 154.8L171.0 155.1L172.5 155.4L174.0 155.7L175.5 155.9L177.0 156.2L178.5 156.4L180.0 156.5L181.5 156.7L183.0 156.8L184.5 156.9L186.0 157.0L187.5 157.0L189.0 157.0L190.5 157.0L192.0 157.0L193.5 156.9L195.0 156.8L196.5 156.7L198.0 156.5L199.5 156.3L201.0 156.1L202.5 155.9L204.0 155.6L205.5 155.3L207.0 154.9L208.5 154.6L210.0 154.2L211.5 153.7L213.0 153.3L214.5 152.8L216.0 152.3L217.5 151.7L219.0 151.2L220.5 150.6L222.0 150.0L223.5 149.3L225.0 148.6L226.5 147.9L228.0 147.2L229.5 146.5L231.0 145.7L232.5 144.9L234.0 144.1L235.5 143.3L237.0 142.4L238.5 141.5L240.0 140.6L241.5 139.7L243.0 138.8L244.5 137.8L246.0 136.9L247.5 135.9L249.0 135.0L250.5 134.0L252.0 133.0L253.5 131.9L255.0 130.9L256.5 129.9L258.0 128.8L259.5 127.8L261.0 126.8L262.5 125.6L264.0 124.5L265.5 123.4L267.0 122.4L268.5 121.3L270.0 120.4L271.5 119.4L273.0 118.4L274.5 117.3L276.0 116.3L277.5 115.3L279.0 114.3L280.5 113.3L282.0 112.3L283.5 111.3L285.0 110.2L286.5 109.2L288.0 108.3L289.5 107.4L291.0 106.4L292.5 105.6L294.0 104.7L295.5 103.8L297.0 103.0L298.5 102.2L300.0 101.4L301.5 100.7L303.0 99.9L304.5 99.2L306.0 98.5L307.5 98.1L309.0 97.5L310.5 96.9L312.0 96.3L313.5 95.8L315.0 94.4L316.5 93.9L318.0 93.5L319.5 93.0L321.0 92.6L322.5 92.9L324.0 92.6L325.5 92.3L327.0 92.0L328.5 91.8L330.0 91.6L331.5 91.4L333.0 91.3L334.5 91.2L336.0 91.2L337.5 91.6L339.0 91.6L340.5 91.7L342.0 91.7L343.5 91.9L345.0 92.0L346.5 92.2L348.0 92.4L349.5 92.7L351.0 93.0L352.5 92.8L354.0 93.1L355.5 93.5L357.0 93.9L358.5 94.3L360.0 94.8L361.5 95.2L363.0 95.8L364.5 96.3L366.0 96.9L367.5 96.8L369.0 97.4L370.5 98.1L372.0 98.7L373.5 99.4L375.0 100.8L376.5 101.5L378.0 102.3L379.5 103.1L381.0 103.9L382.5 103.2L384.0 104.0L385.5 104.8L387.0 105.6L388.5 106.5L390.0 109.7L391.5 110.6L393.0 111.5L394.5 112.5L396.0 113.4L397.5 112.6L399.0 113.5L400.5 114.5L402.0 115.4L403.5 116.3L405.0 119.1L406.5 120.0L408.0 121.0L409.5 121.9L411.0 122.9L412.5 120.9L414.0 121.8L415.5 122.7L417.0 123.6L418.5 124.5L420.0 129.4L421.5 130.3L423.0 131.2L424.5 132.1L426.0 133.0L427.5 132.8L429.0 133.6L430.5 134.5L432.0 135.3L433.5 136.0L435.0 137.9L436.5 138.7L438.0 139.4L439.5 140.1L441.0 140.8L442.5 136.9L444.0 137.5L445.5 138.1L447.0 138.7L448.5 139.3L450.0 143.4L451.5 143.9L453.0 144.4L454.5 144.9L456.0 145.4L457.5 145.8L459.0 146.2L460.5 146.6L462.0 147.0L463.5 147.3L465.0 147.6L466.5 147.9L468.0 148.1L469.5 148.4L471.0 148.6L472.5 146.1L474.0 146.2L475.5 146.4L477.0 146.4L478.5 146.5L480.0 149.3L481.5 149.3L483.0 149.3L484.5 149.3L486.0 149.2L487.5 150.5L489.0 150.5L490.5 150.4L492.0 150.2L493.5 150.1L495.0 145.7L496.5 145.5L498.0 145.3L499.5 145.0L501.0 144.8L502.5 146.0L504.0 145.7L505.5 145.4L507.0 145.1L508.5 144.8L510.0 144.5L511.5 144.1L513.0 143.8L514.5 143.4L516.0 143.1L517.5 145.6L519.0 145.3L520.5 144.9L522.0 144.5L523.5 144.1L525.0 137.8L526.5 137.4L528.0 137.0L529.5 136.6L531.0 136.2L532.5 140.3L534.0 139.9L535.5 139.5L537.0 139.1L538.5 138.6L540.0 136.5L540.0 154.5L538.5 150.0L537.0 151.0L535.5 151.8L534.0 152.6L532.5 153.4L531.0 160.1L529.5 160.8L528.0 161.5L526.5 162.2L525.0 162.9L523.5 162.1L522.0 162.8L520.5 163.4L519.0 164.0L517.5 164.7L516.0 162.3L514.5 162.9L513.0 163.5L511.5 164.1L510.0 164.7L508.5 166.7L507.0 167.3L505.5 167.8L504.0 168.3L502.5 168.8L501.0 170.7L499.5 171.1L498.0 171.6L496.5 172.0L495.0 172.3L493.5 172.7L492.0 173.1L490.5 173.4L489.0 173.7L487.5 173.9L486.0 172.8L484.5 173.1L483.0 173.3L481.5 173.4L480.0 173.6L478.5 175.1L477.0 175.2L475.5 175.2L474.0 175.3L472.5 175.3L471.0 175.3L469.5 175.3L468.0 175.2L466.5 175.1L465.0 175.0L463.5 173.5L462.0 173.4L460.5 173.2L459.0 173.0L457.5 172.7L456.0 173.7L454.5 173.3L453.0 173.0L451.5 172.6L450.0 172.3L448.5 169.5L447.0 169.0L445.5 168.6L444.0 168.1L442.5 167.6L441.0 166.0L439.5 165.4L438.0 164.9L436.5 164.3L435.0 163.7L433.5 164.2L432.0 163.5L430.5 162.9L429.0 162.2L427.5 161.5L426.0 160.8L424.5 160.1L423.0 159.3L421.5 158.6L420.0 157.8L418.5 159.0L417.0 158.2L415.5 157.4L414.0 156.6L412.5 155.7L411.0 152.1L409.5 151.3L408.0 150.4L406.5 149.6L405.0 148.8L403.5 148.9L402.0 148.0L400.5 147.2L399.0 146.4L397.5 145.5L396.0 147.2L394.5 146.4L393.0 145.5L391.5 144.7L390.0 143.9L388.5 141.5L387.0 140.7L385.5 139.9L384.0 139.2L382.5 138.4L381.0 137.0L379.5 136.3L378.0 135.6L376.5 134.9L375.0 134.2L373.5 132.9L372.0 132.3L370.5 131.8L369.0 131.2L367.5 130.7L366.0 131.4L364.5 130.9L363.0 130.4L361.5 129.9L360.0 129.5L358.5 129.7L357.0 129.3L355.5 128.9L354.0 128.6L352.5 128.3L351.0 127.5L349.5 127.3L348.0 127.1L346.5 126.9L345.0 126.8L343.5 127.2L342.0 127.1L340.5 127.0L339.0 127.0L337.5 127.0L336.0 127.1L334.5 127.1L333.0 127.3L331.5 127.4L330.0 127.6L328.5 127.8L327.0 128.0L325.5 128.3L324.0 128.6L322.5 128.9L321.0 129.3L319.5 129.7L318.0 130.1L316.5 130.6L315.0 131.1L313.5 131.1L312.0 131.6L310.5 132.2L309.0 132.8L307.5 133.5L306.0 134.9L304.5 135.5L303.0 136.2L301.5 137.0L300.0 137.7L298.5 137.7L297.0 138.5L295.5 139.4L294.0 140.2L292.5 141.1L291.0 142.3L289.5 143.2L288.0 144.1L286.5 145.0L285.0 146.0L283.5 146.7L282.0 147.7L280.5 148.7L279.0 149.7L277.5 150.7L276.0 152.1L274.5 153.1L273.0 154.1L271.5 155.1L270.0 156.1L268.5 157.1L267.0 158.2L265.5 159.2L264.0 160.2L262.5 161.2L261.0 162.1L259.5 163.1L258.0 164.1L256.5 165.1L255.0 166.1L253.5 167.1L252.0 168.1L250.5 169.0L249.0 170.0L247.5 170.9L246.0 171.9L244.5 172.8L243.0 173.7L241.5 174.5L240.0 175.4L238.5 176.2L237.0 177.0L235.5 177.8L234.0 178.6L232.5 179.4L231.0 180.1L229.5 180.8L228.0 181.5L226.5 182.1L225.0 182.8L223.5 183.4L222.0 183.9L220.5 184.5L219.0 185.0L217.5 185.5L216.0 186.0L214.5 186.4L213.0 186.8L211.5 187.2L210.0 187.5L208.5 187.8L207.0 188.1L205.5 188.4L204.0 188.6L202.5 188.8L201.0 188.9L199.5 189.1L198.0 189.2L196.5 189.2L195.0 189.3L193.5 189.3L192.0 189.2L190.5 189.2L189.0 189.1L187.5 189.0L186.0 188.8L184.5 188.6L183.0 188.4L181.5 188.2L180.0 187.9L178.5 187.6L177.0 187.3L175.5 187.0L174.0 186.6L172.5 186.2L171.0 185.8L169.5 185.4L168.0 184.9L166.5 184.4L165.0 183.9L163.5 183.4L162.0 182.8L160.5 182.3L159.0 181.7L157.5 181.1L156.0 180.5L154.5 179.8L153.0 179.2L151.5 178.5L150.0 177.8L148.5 177.2L147.0 176.5L145.5 175.8L144.0 175.0L142.5 174.3L141.0 173.6L139.5 172.9L138.0 172.1L136.5 171.4L135.0 170.6L133.5 169.9L132.0 169.2L130.5 168.4L129.0 167.7L127.5 166.9L126.0 166.2L124.5 165.5L123.0 164.8L121.5 164.0L120.0 163.3L118.5 162.6L117.0 162.0L115.5 161.3L114.0 160.6L112.5 160.0L111.0 159.3L109.5 158.7L108.0 158.1L106.5 157.5L105.0 156.9L103.5 156.4L102.0 155.8L100.5 155.3L99.0 154.8L97.5 154.3L96.0 153.9L94.5 153.4L93.0 153.0L91.5 152.6L90.0 152.3L88.5 151.9L87.0 151.6L85.5 151.3L84.0 151.0L82.5 150.8L81.0 150.6L79.5 150.4L78.0 150.3L76.5 150.1L75.0 150.0L73.5 150.0L72.0 150.0L70.5 150.0L69.0 150.0L67.5 150.1L66.0 150.2L64.5 150.4L63.0 150.6L61.5 150.9L60.0 151.5Z M60.0 182.1L61.5 180.4L63.0 179.3L64.5 178.4L66.0 177.6L67.5 176.8L69.0 176.1L70.5 175.4L72.0 174.8L73.5 174.2L75.0 173.6L76.5 173.1L78.0 172.6L79.5 172.1L81.0 171.7L82.5 171.3L84.0 170.9L85.5 170.5L87.0 170.2L88.5 169.9L90.0 169.6L91.5 169.4L93.0 169.2L94.5 169.0L96.0 168.8L97.5 168.7L99.0 168.5L100.5 168.5L102.0 168.4L103.5 168.4L105.0 168.4L106.5 168.4L108.0 168.5L109.5 168.6L111.0 168.7L112.5 168.8L114.0 169.0L115.5 169.2L117.0 169.4L118.5 169.6L120.0 169.9L121.5 170.2L123.0 170.5L124.5 170.9L126.0 171.2L127.5 171.6L129.0 172.0L130.5 172.5L132.0 172.9L133.5 173.4L135.0 173.9L136.5 174.4L138.0 175.0L139.5 175.5L141.0 176.1L142.5 176.7L144.0 177.3L145.5 178.0L147.0 178.6L148.5 179.3L150.0 179.9L151.5 180.6L153.0 181.3L154.5 182.0L156.0 182.7L157.5 183.4L159.0 184.1L160.5 184.9L162.0 185.6L163.5 186.3L165.0 187.1L166.5 187.8L168.0 188.6L169.5 189.3L171.0 190.1L172.5 190.8L174.0 191.5L175.5 192.3L177.0 193.0L178.5 193.7L180.0 194.4L181.5 195.1L183.0 195.8L184.5 196.5L186.0 197.2L187.5 197.8L189.0 198.5L190.5 199.1L192.0 199.7L193.5 200.3L195.0 200.9L196.5 201.5L198.0 202.0L199.5 202.5L201.0 203.0L202.5 203.5L204.0 204.0L205.5 204.4L207.0 204.8L208.5 205.2L210.0 205.6L211.5 205.9L213.0 206.2L214.5 206.5L216.0 206.7L217.5 207.0L219.0 207.2L220.5 207.3L222.0 207.5L223.5 207.6L225.0 207.6L226.5 207.7L228.0 207.7L229.5 207.7L231.0 207.6L232.5 207.5L234.0 207.4L235.5 207.3L237.0 207.1L238.5 206.9L240.0 206.7L241.5 206.4L243.0 206.1L244.5 205.8L246.0 205.4L247.5 205.0L249.0 204.6L250.5 204.1L252.0 203.6L253.5 203.1L255.0 202.6L256.5 202.0L258.0 201.4L259.5 200.8L261.0 200.2L262.5 199.5L264.0 198.8L265.5 198.1L267.0 197.3L268.5 196.5L270.0 195.8L271.5 195.0L273.0 194.2L274.5 193.3L276.0 192.4L277.5 191.5L279.0 190.6L280.5 189.7L282.0 188.8L283.5 187.8L285.0 186.7L286.5 185.7L288.0 184.7L289.5 183.7L291.0 182.7L292.5 181.7L294.0 180.6L295.5 179.6L297.0 178.6L298.5 177.5L300.0 175.9L301.5 174.8L303.0 173.7L304.5 172.6L306.0 171.6L307.5 171.0L309.0 169.9L310.5 168.9L312.0 167.8L313.5 166.8L315.0 165.2L316.5 164.2L318.0 163.2L319.5 162.2L321.0 161.2L322.5 161.5L324.0 160.6L325.5 159.7L327.0 158.8L328.5 157.9L330.0 155.5L331.5 154.6L333.0 153.8L334.5 153.0L336.0 152.1L337.5 152.6L339.0 151.9L340.5 151.2L342.0 150.5L343.5 149.8L345.0 148.2L346.5 147.6L348.0 147.0L349.5 146.4L351.0 145.9L352.5 145.4L354.0 144.9L355.5 144.5L357.0 144.0L358.5 143.6L360.0 143.9L361.5 143.5L363.0 143.3L364.5 143.0L366.0 142.8L367.5 141.3L369.0 141.2L370.5 141.0L372.0 140.9L373.5 140.8L375.0 142.8L376.5 142.9L378.0 142.9L379.5 143.0L381.0 143.1L382.5 143.2L384.0 143.4L385.5 143.6L387.0 143.9L388.5 144.1L390.0 142.8L391.5 143.1L393.0 143.5L394.5 143.8L396.0 144.2L397.5 144.6L399.0 145.1L400.5 145.6L402.0 146.0L403.5 146.6L405.0 147.1L406.5 147.7L408.0 148.2L409.5 148.8L411.0 149.5L412.5 151.1L414.0 151.7L415.5 152.4L417.0 153.1L418.5 153.8L420.0 156.6L421.5 157.3L423.0 158.1L424.5 158.9L426.0 159.7L427.5 158.4L429.0 159.2L430.5 160.0L432.0 160.8L433.5 161.6L435.0 161.4L436.5 162.2L438.0 163.0L439.5 163.8L441.0 164.6L442.5 164.3L444.0 165.1L445.5 165.9L447.0 166.7L448.5 167.5L450.0 171.8L451.5 172.6L453.0 173.4L454.5 174.2L456.0 175.0L457.5 173.3L459.0 174.0L460.5 174.7L462.0 175.4L463.5 176.1L465.0 178.1L466.5 178.7L468.0 179.4L469.5 180.0L471.0 180.7L472.5 181.3L474.0 181.8L475.5 182.4L477.0 182.9L478.5 183.4L480.0 181.2L481.5 181.7L483.0 182.1L484.5 182.5L486.0 182.9L487.5 183.3L489.0 183.6L490.5 183.9L492.0 184.2L493.5 184.5L495.0 186.1L496.5 186.4L498.0 186.6L499.5 186.7L501.0 186.9L502.5 191.3L504.0 191.4L505.5 191.5L507.0 191.5L508.5 191.6L510.0 188.7L511.5 188.6L513.0 188.6L514.5 188.5L516.0 188.4L517.5 188.2L519.0 188.1L520.5 187.9L522.0 187.7L523.5 187.4L525.0 188.7L526.5 188.4L528.0 188.0L529.5 187.7L531.0 187.3L532.5 185.4L534.0 185.0L535.5 184.5L537.0 183.9L538.5 183.2L540.0 180.6L540.0 195.4L538.5 195.6L537.0 196.7L535.5 197.6L534.0 198.4L532.5 199.1L531.0 198.3L529.5 198.9L528.0 199.5L526.5 200.1L525.0 200.6L523.5 199.6L522.0 200.1L520.5 200.5L519.0 200.9L517.5 201.3L516.0 201.6L514.5 201.9L513.0 202.2L511.5 202.4L510.0 202.7L508.5 207.2L507.0 207.4L505.5 207.5L504.0 207.6L502.5 207.7L501.0 206.3L499.5 206.3L498.0 206.3L496.5 206.2L495.0 206.1L493.5 206.0L492.0 205.9L490.5 205.8L489.0 205.6L487.5 205.4L486.0 203.8L484.5 203.5L483.0 203.2L481.5 202.9L480.0 202.6L478.5 200.9L477.0 200.6L475.5 200.2L474.0 199.8L472.5 199.3L471.0 201.5L469.5 201.0L468.0 200.5L466.5 200.0L465.0 199.4L463.5 196.3L462.0 195.7L460.5 195.2L459.0 194.6L457.5 194.0L456.0 194.6L454.5 193.9L453.0 193.3L451.5 192.6L450.0 191.9L448.5 192.5L447.0 191.8L445.5 191.0L444.0 190.3L442.5 189.6L441.0 188.9L439.5 188.2L438.0 187.5L436.5 186.7L435.0 186.0L433.5 183.1L432.0 182.4L430.5 181.7L429.0 181.0L427.5 180.3L426.0 181.8L424.5 181.1L423.0 180.4L421.5 179.7L420.0 179.1L418.5 179.4L417.0 178.8L415.5 178.1L414.0 177.5L412.5 176.9L411.0 173.5L409.5 173.0L408.0 172.5L406.5 172.0L405.0 171.5L403.5 171.9L402.0 171.5L400.5 171.1L399.0 170.7L397.5 170.3L396.0 170.8L394.5 170.5L393.0 170.2L391.5 169.9L390.0 169.7L388.5 171.0L387.0 170.8L385.5 170.6L384.0 170.4L382.5 170.3L381.0 169.5L379.5 169.4L378.0 169.4L376.5 169.4L375.0 169.5L373.5 169.5L372.0 169.6L370.5 169.8L369.0 169.9L367.5 170.1L366.0 170.3L364.5 170.6L363.0 170.9L361.5 171.2L360.0 171.5L358.5 171.9L357.0 172.3L355.5 172.8L354.0 173.3L352.5 173.8L351.0 174.8L349.5 175.3L348.0 175.9L346.5 176.5L345.0 177.2L343.5 176.4L342.0 177.1L340.5 177.9L339.0 178.6L337.5 179.4L336.0 181.1L334.5 181.9L333.0 182.7L331.5 183.6L330.0 184.4L328.5 184.9L327.0 185.9L325.5 186.8L324.0 187.7L322.5 188.7L321.0 190.0L319.5 191.0L318.0 192.0L316.5 193.0L315.0 194.0L313.5 194.8L312.0 195.8L310.5 196.8L309.0 197.9L307.5 199.0L306.0 200.2L304.5 201.3L303.0 202.4L301.5 203.4L300.0 204.5L298.5 205.1L297.0 206.2L295.5 207.2L294.0 208.3L292.5 209.3L291.0 210.5L289.5 211.5L288.0 212.5L286.5 213.5L285.0 214.5L283.5 215.4L282.0 216.3L280.5 217.3L279.0 218.2L277.5 219.1L276.0 220.1L274.5 221.0L273.0 221.8L271.5 222.6L270.0 223.4L268.5 224.3L267.0 225.0L265.5 225.8L264.0 226.5L262.5 227.1L261.0 227.8L259.5 228.4L258.0 229.0L256.5 229.6L255.0 230.1L253.5 230.6L252.0 231.1L250.5 231.5L249.0 231.9L247.5 232.3L246.0 232.7L244.5 233.0L243.0 233.3L241.5 233.6L240.0 233.8L238.5 234.0L237.0 234.1L235.5 234.3L234.0 234.4L232.5 234.4L231.0 234.5L229.5 234.5L228.0 234.4L226.5 234.4L225.0 234.3L223.5 234.1L222.0 234.0L220.5 233.8L219.0 233.6L217.5 233.3L216.0 233.0L214.5 232.7L213.0 232.4L211.5 232.0L210.0 231.6L208.5 231.2L207.0 230.7L205.5 230.2L204.0 229.7L202.5 229.2L201.0 228.7L199.5 228.1L198.0 227.5L196.5 226.9L195.0 226.2L193.5 225.6L192.0 224.9L190.5 224.2L189.0 223.5L187.5 222.8L186.0 222.0L184.5 221.3L183.0 220.5L181.5 219.7L180.0 218.9L178.5 218.1L177.0 217.3L175.5 216.5L174.0 215.7L172.5 214.8L171.0 214.0L169.5 213.2L168.0 212.3L166.5 211.5L165.0 210.6L163.5 209.8L162.0 209.0L160.5 208.1L159.0 207.3L157.5 206.5L156.0 205.6L154.5 204.8L153.0 204.0L151.5 203.2L150.0 202.4L148.5 201.7L147.0 200.9L145.5 200.1L144.0 199.4L142.5 198.7L141.0 197.9L139.5 197.3L138.0 196.6L136.5 195.9L135.0 195.3L133.5 194.6L132.0 194.0L130.5 193.4L129.0 192.9L127.5 192.3L126.0 191.8L124.5 191.3L123.0 190.8L121.5 190.4L120.0 189.9L118.5 189.5L117.0 189.1L115.5 188.8L114.0 188.4L112.5 188.1L111.0 187.9L109.5 187.6L108.0 187.4L106.5 187.2L105.0 187.0L103.5 186.8L102.0 186.7L100.5 186.6L99.0 186.5L97.5 186.4L96.0 186.4L94.5 186.4L93.0 186.4L91.5 186.5L90.0 186.5L88.5 186.6L87.0 186.8L85.5 186.9L84.0 187.1L82.5 187.3L81.0 187.5L79.5 187.7L78.0 188.0L76.5 188.3L75.0 188.6L73.5 188.9L72.0 189.3L70.5 189.7L69.0 190.1L67.5 190.5L66.0 191.0L64.5 191.5L63.0 192.1L61.5 192.8L60.0 193.9Z M60.0 227.4L61.5 226.2L63.0 225.4L64.5 224.7L66.0 224.1L67.5 223.4L69.0 222.8L70.5 222.1L72.0 221.5L73.5 220.9L75.0 220.3L76.5 219.7L78.0 219.0L79.5 218.4L81.0 217.8L82.5 217.3L84.0 216.7L85.5 216.1L87.0 215.5L88.5 215.0L90.0 214.4L91.5 213.9L93.0 213.3L94.5 212.8L96.0 212.3L97.5 211.8L99.0 211.4L100.5 210.9L102.0 210.4L103.5 210.0L105.0 209.6L106.5 209.2L108.0 208.8L109.5 208.5L111.0 208.2L112.5 207.8L114.0 207.6L115.5 207.3L117.0 207.0L118.5 206.8L120.0 206.6L121.5 206.4L123.0 206.3L124.5 206.2L126.0 206.1L127.5 206.0L129.0 206.0L130.5 205.9L132.0 205.9L133.5 206.0L135.0 206.0L136.5 206.1L138.0 206.2L139.5 206.4L141.0 206.6L142.5 206.8L144.0 207.0L145.5 207.2L147.0 207.5L148.5 207.8L150.0 208.2L151.5 208.5L153.0 208.9L154.5 209.3L156.0 209.8L157.5 210.2L159.0 210.7L160.5 211.2L162.0 211.8L163.5 212.3L165.0 212.9L166.5 213.5L168.0 214.1L169.5 214.8L171.0 215.4L172.5 216.1L174.0 216.8L175.5 217.5L177.0 218.3L178.5 219.0L180.0 219.8L181.5 220.6L183.0 221.4L184.5 222.2L186.0 223.0L187.5 223.8L189.0 224.7L190.5 225.5L192.0 226.4L193.5 227.2L195.0 228.1L196.5 229.0L198.0 229.9L199.5 230.7L201.0 231.6L202.5 232.5L204.0 233.4L205.5 234.3L207.0 235.1L208.5 236.0L210.0 236.9L211.5 237.7L213.0 238.6L214.5 239.4L216.0 240.3L217.5 241.1L219.0 241.9L220.5 242.7L222.0 243.5L223.5 244.3L225.0 245.0L226.5 245.8L228.0 246.5L229.5 247.2L231.0 247.9L232.5 248.5L234.0 249.2L235.5 249.8L237.0 250.4L238.5 251.0L240.0 251.5L241.5 252.1L243.0 252.6L244.5 253.0L246.0 253.5L247.5 253.9L249.0 254.3L250.5 254.6L252.0 255.0L253.5 255.3L255.0 255.5L256.5 255.7L258.0 255.9L259.5 256.1L261.0 256.2L262.5 256.4L264.0 256.5L265.5 256.6L267.0 256.6L268.5 256.6L270.0 256.6L271.5 256.5L273.0 256.4L274.5 256.2L276.0 256.1L277.5 255.8L279.0 255.5L280.5 255.2L282.0 254.9L283.5 254.6L285.0 254.3L286.5 253.9L288.0 253.5L289.5 253.0L291.0 252.6L292.5 252.2L294.0 251.7L295.5 251.1L297.0 250.5L298.5 249.9L300.0 248.6L301.5 247.9L303.0 247.2L304.5 246.5L306.0 245.7L307.5 244.7L309.0 243.8L310.5 243.0L312.0 242.1L313.5 241.3L315.0 240.4L316.5 239.4L318.0 238.5L319.5 237.6L321.0 236.6L322.5 236.6L324.0 235.7L325.5 234.7L327.0 233.7L328.5 232.7L330.0 232.1L331.5 231.1L333.0 230.1L334.5 229.1L336.0 228.1L337.5 226.3L339.0 225.2L340.5 224.2L342.0 223.2L343.5 222.2L345.0 220.7L346.5 219.6L348.0 218.6L349.5 217.6L351.0 216.6L352.5 215.1L354.0 214.1L355.5 213.1L357.0 212.2L358.5 211.2L360.0 210.8L361.5 209.9L363.0 209.0L364.5 208.1L366.0 207.3L367.5 207.7L369.0 206.9L370.5 206.1L372.0 205.3L373.5 204.6L375.0 204.6L376.5 203.9L378.0 203.2L379.5 202.6L381.0 202.0L382.5 199.2L384.0 198.6L385.5 198.0L387.0 197.5L388.5 197.0L390.0 197.3L391.5 196.9L393.0 196.5L394.5 196.1L396.0 195.8L397.5 194.6L399.0 194.3L400.5 194.0L402.0 193.8L403.5 193.6L405.0 195.2L406.5 195.1L408.0 195.0L409.5 194.9L411.0 194.9L412.5 193.9L414.0 194.0L415.5 194.0L417.0 194.1L418.5 194.2L420.0 195.3L421.5 195.5L423.0 195.7L424.5 195.9L426.0 196.2L427.5 197.5L429.0 197.8L430.5 198.2L432.0 198.6L433.5 199.0L435.0 194.9L436.5 195.3L438.0 195.8L439.5 196.2L441.0 196.7L442.5 200.6L444.0 201.1L445.5 201.7L447.0 202.2L448.5 202.8L450.0 201.0L451.5 201.6L453.0 202.2L454.5 202.8L456.0 203.5L457.5 207.8L459.0 208.5L460.5 209.2L462.0 209.9L463.5 210.6L465.0 211.3L466.5 212.0L468.0 212.7L469.5 213.4L471.0 214.1L472.5 212.2L474.0 212.8L475.5 213.5L477.0 214.2L478.5 214.9L480.0 216.9L481.5 217.6L483.0 218.3L484.5 219.0L486.0 219.6L487.5 220.2L489.0 220.9L490.5 221.5L492.0 222.1L493.5 222.7L495.0 223.3L496.5 223.8L498.0 224.4L499.5 224.9L501.0 225.4L502.5 223.0L504.0 223.5L505.5 223.9L507.0 224.3L508.5 224.7L510.0 228.0L511.5 228.4L513.0 228.7L514.5 229.0L516.0 229.3L517.5 228.1L519.0 228.3L520.5 228.5L522.0 228.7L523.5 228.8L525.0 227.4L526.5 227.5L528.0 227.5L529.5 227.5L531.0 227.5L532.5 230.4L534.0 230.3L535.5 230.1L537.0 229.9L538.5 229.5L540.0 225.9L540.0 238.1L538.5 237.7L537.0 238.3L535.5 238.9L534.0 239.3L532.5 239.6L531.0 238.4L529.5 238.6L528.0 238.8L526.5 239.0L525.0 239.1L523.5 240.6L522.0 240.7L520.5 240.7L519.0 240.6L517.5 240.6L516.0 237.5L514.5 237.4L513.0 237.2L511.5 237.1L510.0 236.8L508.5 239.5L507.0 239.3L505.5 239.0L504.0 238.7L502.5 238.3L501.0 236.5L499.5 236.2L498.0 235.8L496.5 235.4L495.0 234.9L493.5 235.9L492.0 235.4L490.5 234.9L489.0 234.5L487.5 233.9L486.0 234.8L484.5 234.3L483.0 233.7L481.5 233.1L480.0 232.6L478.5 233.3L477.0 232.8L475.5 232.2L474.0 231.6L472.5 230.9L471.0 226.4L469.5 225.8L468.0 225.2L466.5 224.6L465.0 224.1L463.5 226.0L462.0 225.4L460.5 224.9L459.0 224.3L457.5 223.7L456.0 220.7L454.5 220.1L453.0 219.6L451.5 219.1L450.0 218.6L448.5 218.1L447.0 217.6L445.5 217.2L444.0 216.7L442.5 216.3L441.0 217.0L439.5 216.6L438.0 216.2L436.5 215.9L435.0 215.5L433.5 215.2L432.0 214.9L430.5 214.6L429.0 214.4L427.5 214.2L426.0 211.9L424.5 211.7L423.0 211.6L421.5 211.5L420.0 211.4L418.5 214.4L417.0 214.3L415.5 214.3L414.0 214.3L412.5 214.3L411.0 214.4L409.5 214.5L408.0 214.6L406.5 214.8L405.0 215.0L403.5 213.4L402.0 213.6L400.5 213.9L399.0 214.3L397.5 214.6L396.0 215.8L394.5 216.2L393.0 216.7L391.5 217.1L390.0 217.6L388.5 218.1L387.0 218.7L385.5 219.2L384.0 219.8L382.5 220.5L381.0 220.4L379.5 221.1L378.0 221.8L376.5 222.5L375.0 223.3L373.5 225.4L372.0 226.2L370.5 227.0L369.0 227.8L367.5 228.7L366.0 229.5L364.5 230.4L363.0 231.3L361.5 232.2L360.0 233.1L358.5 232.4L357.0 233.4L355.5 234.4L354.0 235.4L352.5 236.4L351.0 237.4L349.5 238.5L348.0 239.5L346.5 240.6L345.0 241.6L343.5 242.7L342.0 243.8L340.5 244.8L339.0 245.9L337.5 247.0L336.0 248.4L334.5 249.5L333.0 250.5L331.5 251.6L330.0 252.6L328.5 253.7L327.0 254.7L325.5 255.7L324.0 256.7L322.5 257.7L321.0 259.3L319.5 260.2L318.0 261.2L316.5 262.1L315.0 263.0L313.5 264.2L312.0 265.0L310.5 265.8L309.0 266.7L307.5 267.4L306.0 268.0L304.5 268.7L303.0 269.5L301.5 270.2L300.0 270.9L298.5 270.9L297.0 271.6L295.5 272.2L294.0 272.8L292.5 273.4L291.0 274.4L289.5 274.9L288.0 275.3L286.5 275.7L285.0 276.1L283.5 276.4L282.0 276.7L280.5 277.0L279.0 277.3L277.5 277.5L276.0 277.8L274.5 277.9L273.0 278.1L271.5 278.2L270.0 278.2L268.5 278.2L267.0 278.2L265.5 278.2L264.0 278.1L262.5 278.0L261.0 277.9L259.5 277.7L258.0 277.5L256.5 277.3L255.0 277.0L253.5 276.7L252.0 276.4L250.5 276.0L249.0 275.6L247.5 275.2L246.0 274.8L244.5 274.3L243.0 273.8L241.5 273.2L240.0 272.7L238.5 272.1L237.0 271.5L235.5 270.8L234.0 270.2L232.5 269.5L231.0 268.8L229.5 268.1L228.0 267.3L226.5 266.6L225.0 265.8L223.5 265.0L222.0 264.2L220.5 263.3L219.0 262.5L217.5 261.6L216.0 260.8L214.5 259.9L213.0 259.0L211.5 258.1L210.0 257.2L208.5 256.3L207.0 255.3L205.5 254.4L204.0 253.5L202.5 252.5L201.0 251.6L199.5 250.7L198.0 249.7L196.5 248.8L195.0 247.9L193.5 246.9L192.0 246.0L190.5 245.1L189.0 244.2L187.5 243.3L186.0 242.4L184.5 241.5L183.0 240.6L181.5 239.7L180.0 238.9L178.5 238.1L177.0 237.2L175.5 236.4L174.0 235.6L172.5 234.9L171.0 234.1L169.5 233.4L168.0 232.6L166.5 231.9L165.0 231.3L163.5 230.6L162.0 230.0L160.5 229.4L159.0 228.8L157.5 228.2L156.0 227.7L154.5 227.1L153.0 226.6L151.5 226.2L150.0 225.7L148.5 225.3L147.0 224.9L145.5 224.5L144.0 224.2L142.5 223.9L141.0 223.6L139.5 223.3L138.0 223.1L136.5 222.9L135.0 222.7L133.5 222.5L132.0 222.4L130.5 222.3L129.0 222.2L127.5 222.2L126.0 222.1L124.5 222.1L123.0 222.1L121.5 222.2L120.0 222.3L118.5 222.3L117.0 222.5L115.5 222.6L114.0 222.7L112.5 222.9L111.0 223.1L109.5 223.3L108.0 223.6L106.5 223.8L105.0 224.1L103.5 224.4L102.0 224.7L100.5 225.0L99.0 225.4L97.5 225.7L96.0 226.1L94.5 226.4L93.0 226.8L91.5 227.2L90.0 227.6L88.5 228.0L87.0 228.4L85.5 228.9L84.0 229.3L82.5 229.7L81.0 230.2L79.5 230.6L78.0 231.0L76.5 231.5L75.0 231.9L73.5 232.4L72.0 232.8L70.5 233.2L69.0 233.7L67.5 234.1L66.0 234.5L64.5 235.0L63.0 235.4L61.5 235.9L60.0 236.6Z M60.0 272.4L61.5 272.4L63.0 272.3L64.5 272.1L66.0 271.9L67.5 271.7L69.0 271.5L70.5 271.2L72.0 270.9L73.5 270.6L75.0 270.3L76.5 269.9L78.0 269.5L79.5 269.1L81.0 268.7L82.5 268.2L84.0 267.7L85.5 267.3L87.0 266.8L88.5 266.3L90.0 265.7L91.5 265.2L93.0 264.6L94.5 264.1L96.0 263.5L97.5 262.9L99.0 262.3L100.5 261.7L102.0 261.1L103.5 260.5L105.0 259.9L106.5 259.3L108.0 258.7L109.5 258.1L111.0 257.5L112.5 256.9L114.0 256.3L115.5 255.7L117.0 255.1L118.5 254.5L120.0 253.9L121.5 253.4L123.0 252.8L124.5 252.3L126.0 251.7L127.5 251.2L129.0 250.7L130.5 250.2L132.0 249.7L133.5 249.2L135.0 248.8L136.5 248.3L138.0 247.9L139.5 247.5L141.0 247.2L142.5 246.8L144.0 246.5L145.5 246.1L147.0 245.9L148.5 245.6L150.0 245.4L151.5 245.1L153.0 244.9L154.5 244.8L156.0 244.6L157.5 244.5L159.0 244.4L160.5 244.4L162.0 244.4L163.5 244.4L165.0 244.4L166.5 244.4L168.0 244.5L169.5 244.6L171.0 244.8L172.5 244.9L174.0 245.1L175.5 245.4L177.0 245.6L178.5 245.9L180.0 246.2L181.5 246.6L183.0 246.9L184.5 247.3L186.0 247.8L187.5 248.2L189.0 248.7L190.5 249.2L192.0 249.8L193.5 250.3L195.0 250.9L196.5 251.5L198.0 252.2L199.5 252.8L201.0 253.5L202.5 254.2L204.0 255.0L205.5 255.7L207.0 256.5L208.5 257.3L210.0 258.1L211.5 258.9L213.0 259.7L214.5 260.6L216.0 261.5L217.5 262.4L219.0 263.3L220.5 264.2L222.0 265.1L223.5 266.0L225.0 267.0L226.5 268.0L228.0 268.9L229.5 269.9L231.0 270.9L232.5 271.8L234.0 272.8L235.5 273.8L237.0 274.8L238.5 275.8L240.0 276.7L241.5 277.7L243.0 278.7L244.5 279.6L246.0 280.6L247.5 281.6L249.0 282.5L250.5 283.5L252.0 284.4L253.5 285.3L255.0 286.3L256.5 287.2L258.0 288.0L259.5 288.9L261.0 289.7L262.5 290.4L264.0 291.2L265.5 292.0L267.0 292.8L268.5 293.5L270.0 294.2L271.5 294.9L273.0 295.6L274.5 296.2L276.0 296.9L277.5 297.6L279.0 298.1L280.5 298.7L282.0 299.2L283.5 299.7L285.0 300.3L286.5 300.7L288.0 301.1L289.5 301.5L291.0 301.8L292.5 301.8L294.0 302.1L295.5 302.3L297.0 302.5L298.5 302.7L300.0 303.2L301.5 303.3L303.0 303.4L304.5 303.5L306.0 303.5L307.5 303.0L309.0 302.9L310.5 302.8L312.0 302.7L313.5 302.5L315.0 302.6L316.5 302.4L318.0 302.1L319.5 301.8L321.0 301.5L322.5 301.5L324.0 301.1L325.5 300.7L327.0 300.3L328.5 299.8L330.0 299.7L331.5 299.2L333.0 298.7L334.5 298.1L336.0 297.5L337.5 297.3L339.0 296.7L340.5 296.0L342.0 295.4L343.5 294.7L345.0 293.5L346.5 292.7L348.0 291.9L349.5 291.2L351.0 290.4L352.5 289.5L354.0 288.7L355.5 287.8L357.0 287.0L358.5 286.1L360.0 284.0L361.5 283.1L363.0 282.2L364.5 281.3L366.0 280.3L367.5 280.6L369.0 279.7L370.5 278.7L372.0 277.8L373.5 276.9L375.0 274.5L376.5 273.6L378.0 272.6L379.5 271.6L381.0 270.7L382.5 271.2L384.0 270.3L385.5 269.4L387.0 268.4L388.5 267.5L390.0 266.6L391.5 265.8L393.0 264.9L394.5 264.0L396.0 263.2L397.5 260.7L399.0 259.8L400.5 259.0L402.0 258.2L403.5 257.4L405.0 257.6L406.5 256.8L408.0 256.1L409.5 255.4L411.0 254.8L412.5 254.1L414.0 253.5L415.5 252.9L417.0 252.3L418.5 251.8L420.0 252.2L421.5 251.8L423.0 251.3L424.5 250.9L426.0 250.4L427.5 248.0L429.0 247.6L430.5 247.2L432.0 246.9L433.5 246.6L435.0 247.5L436.5 247.3L438.0 247.1L439.5 246.9L441.0 246.8L442.5 245.5L444.0 245.4L445.5 245.3L447.0 245.3L448.5 245.3L450.0 245.3L451.5 245.4L453.0 245.4L454.5 245.5L456.0 245.7L457.5 248.3L459.0 248.5L460.5 248.7L462.0 249.0L463.5 249.2L465.0 247.0L466.5 247.3L468.0 247.6L469.5 247.9L471.0 248.3L472.5 250.0L474.0 250.4L475.5 250.8L477.0 251.2L478.5 251.7L480.0 250.8L481.5 251.3L483.0 251.8L484.5 252.3L486.0 252.8L487.5 254.7L489.0 255.3L490.5 255.8L492.0 256.4L493.5 257.0L495.0 258.9L496.5 259.5L498.0 260.1L499.5 260.7L501.0 261.3L502.5 260.4L504.0 261.0L505.5 261.6L507.0 262.2L508.5 262.8L510.0 260.4L511.5 261.0L513.0 261.5L514.5 262.1L516.0 262.6L517.5 264.6L519.0 265.1L520.5 265.6L522.0 266.1L523.5 266.6L525.0 265.6L526.5 266.0L528.0 266.5L529.5 266.9L531.0 267.3L532.5 269.2L534.0 269.5L535.5 269.9L537.0 270.2L538.5 270.5L540.0 275.4L540.0 281.1L538.5 278.1L537.0 278.0L535.5 277.8L534.0 277.7L532.5 277.5L531.0 280.3L529.5 280.0L528.0 279.8L526.5 279.5L525.0 279.1L523.5 275.8L522.0 275.5L520.5 275.1L519.0 274.7L517.5 274.3L516.0 275.4L514.5 275.0L513.0 274.5L511.5 274.1L510.0 273.6L508.5 276.1L507.0 275.6L505.5 275.1L504.0 274.6L502.5 274.1L501.0 270.8L499.5 270.3L498.0 269.8L496.5 269.3L495.0 268.8L493.5 271.2L492.0 270.7L490.5 270.2L489.0 269.7L487.5 269.3L486.0 263.3L484.5 262.9L483.0 262.4L481.5 262.0L480.0 261.7L478.5 262.6L477.0 262.3L475.5 261.9L474.0 261.6L472.5 261.3L471.0 261.0L469.5 260.7L468.0 260.4L466.5 260.2L465.0 260.0L463.5 259.8L462.0 259.6L460.5 259.4L459.0 259.3L457.5 259.2L456.0 261.6L454.5 261.5L453.0 261.4L451.5 261.4L450.0 261.4L448.5 261.4L447.0 261.5L445.5 261.6L444.0 261.7L442.5 261.8L441.0 259.7L439.5 259.9L438.0 260.1L436.5 260.4L435.0 260.7L433.5 259.9L432.0 260.3L430.5 260.7L429.0 261.1L427.5 261.5L426.0 265.1L424.5 265.6L423.0 266.1L421.5 266.6L420.0 267.1L418.5 264.7L417.0 265.3L415.5 266.0L414.0 266.7L412.5 267.4L411.0 270.0L409.5 270.7L408.0 271.4L406.5 272.2L405.0 273.0L403.5 273.8L402.0 274.6L400.5 275.4L399.0 276.3L397.5 277.1L396.0 278.9L394.5 279.7L393.0 280.6L391.5 281.6L390.0 282.5L388.5 281.8L387.0 282.8L385.5 283.8L384.0 284.8L382.5 285.7L381.0 288.2L379.5 289.2L378.0 290.1L376.5 291.1L375.0 292.1L373.5 293.1L372.0 294.1L370.5 295.0L369.0 296.0L367.5 297.0L366.0 297.9L364.5 298.9L363.0 299.8L361.5 300.8L360.0 301.7L358.5 303.2L357.0 304.1L355.5 305.0L354.0 305.8L352.5 306.7L351.0 306.0L349.5 306.8L348.0 307.6L346.5 308.5L345.0 309.2L343.5 310.5L342.0 311.2L340.5 311.9L339.0 312.6L337.5 313.3L336.0 313.9L334.5 314.5L333.0 315.1L331.5 315.7L330.0 316.2L328.5 317.1L327.0 317.6L325.5 318.0L324.0 318.4L322.5 318.8L321.0 318.8L319.5 319.1L318.0 319.4L316.5 319.6L315.0 319.9L313.5 320.6L312.0 320.7L310.5 320.8L309.0 320.9L307.5 321.0L306.0 320.5L304.5 320.5L303.0 320.4L301.5 320.3L300.0 320.2L298.5 319.7L297.0 319.5L295.5 319.3L294.0 319.1L292.5 318.8L291.0 318.7L289.5 318.3L288.0 318.0L286.5 317.6L285.0 317.1L283.5 316.9L282.0 316.4L280.5 315.9L279.0 315.3L277.5 314.7L276.0 313.9L274.5 313.3L273.0 312.6L271.5 311.9L270.0 311.2L268.5 310.5L267.0 309.7L265.5 308.9L264.0 308.1L262.5 307.3L261.0 306.6L259.5 305.7L258.0 304.8L256.5 303.9L255.0 303.0L253.5 302.0L252.0 301.1L250.5 300.1L249.0 299.2L247.5 298.2L246.0 297.2L244.5 296.2L243.0 295.2L241.5 294.2L240.0 293.2L238.5 292.2L237.0 291.2L235.5 290.2L234.0 289.2L232.5 288.2L231.0 287.2L229.5 286.2L228.0 285.2L226.5 284.2L225.0 283.2L223.5 282.2L222.0 281.2L220.5 280.3L219.0 279.3L217.5 278.4L216.0 277.5L214.5 276.5L213.0 275.7L211.5 274.8L210.0 273.9L208.5 273.1L207.0 272.2L205.5 271.4L204.0 270.6L202.5 269.8L201.0 269.1L199.5 268.4L198.0 267.7L196.5 267.0L195.0 266.3L193.5 265.7L192.0 265.1L190.5 264.5L189.0 263.9L187.5 263.4L186.0 262.9L184.5 262.4L183.0 262.0L181.5 261.5L180.0 261.1L178.5 260.8L177.0 260.4L175.5 260.1L174.0 259.8L172.5 259.6L171.0 259.3L169.5 259.1L168.0 259.0L166.5 258.8L165.0 258.7L163.5 258.6L162.0 258.6L160.5 258.5L159.0 258.5L157.5 258.6L156.0 258.6L154.5 258.7L153.0 258.8L151.5 258.9L150.0 259.1L148.5 259.2L147.0 259.4L145.5 259.6L144.0 259.9L142.5 260.1L141.0 260.4L139.5 260.7L138.0 261.1L136.5 261.4L135.0 261.8L133.5 262.1L132.0 262.5L130.5 262.9L129.0 263.4L127.5 263.8L126.0 264.2L124.5 264.7L123.0 265.2L121.5 265.6L120.0 266.1L118.5 266.6L117.0 267.1L115.5 267.6L114.0 268.1L112.5 268.7L111.0 269.2L109.5 269.7L108.0 270.2L106.5 270.7L105.0 271.2L103.5 271.8L102.0 272.3L100.5 272.8L99.0 273.3L97.5 273.7L96.0 274.2L94.5 274.7L93.0 275.1L91.5 275.6L90.0 276.0L88.5 276.4L87.0 276.8L85.5 277.2L84.0 277.6L82.5 277.9L81.0 278.3L79.5 278.6L78.0 278.9L76.5 279.1L75.0 279.4L73.5 279.6L72.0 279.7L70.5 279.9L69.0 280.0L67.5 280.1L66.0 280.1L64.5 280.1L63.0 280.0L61.5 279.9L60.0 279.6Z M60.0 317.2L61.5 318.2L63.0 318.7L64.5 319.2L66.0 319.6L67.5 319.9L69.0 320.1L70.5 320.3L72.0 320.5L73.5 320.6L75.0 320.7L76.5 320.8L78.0 320.8L79.5 320.8L81.0 320.8L82.5 320.7L84.0 320.6L85.5 320.5L87.0 320.3L88.5 320.2L90.0 320.0L91.5 319.7L93.0 319.5L94.5 319.2L96.0 318.9L97.5 318.5L99.0 318.2L100.5 317.8L102.0 317.4L103.5 316.9L105.0 316.5L106.5 316.0L108.0 315.5L109.5 315.0L111.0 314.5L112.5 313.9L114.0 313.4L115.5 312.8L117.0 312.2L118.5 311.6L120.0 311.0L121.5 310.3L123.0 309.7L124.5 309.0L126.0 308.3L127.5 307.7L129.0 307.0L130.5 306.3L132.0 305.6L133.5 304.9L135.0 304.2L136.5 303.5L138.0 302.8L139.5 302.1L141.0 301.3L142.5 300.6L144.0 299.9L145.5 299.2L147.0 298.5L148.5 297.8L150.0 297.1L151.5 296.5L153.0 295.8L154.5 295.1L156.0 294.5L157.5 293.8L159.0 293.2L160.5 292.6L162.0 292.0L163.5 291.4L165.0 290.9L166.5 290.3L168.0 289.8L169.5 289.3L171.0 288.8L172.5 288.3L174.0 287.9L175.5 287.4L177.0 287.0L178.5 286.6L180.0 286.3L181.5 286.0L183.0 285.7L184.5 285.4L186.0 285.1L187.5 284.9L189.0 284.7L190.5 284.5L192.0 284.4L193.5 284.3L195.0 284.2L196.5 284.2L198.0 284.1L199.5 284.2L201.0 284.2L202.5 284.3L204.0 284.4L205.5 284.5L207.0 284.7L208.5 284.9L210.0 285.1L211.5 285.4L213.0 285.6L214.5 286.0L216.0 286.3L217.5 286.7L219.0 287.1L220.5 287.5L222.0 288.0L223.5 288.5L225.0 289.0L226.5 289.6L228.0 290.2L229.5 290.8L231.0 291.4L232.5 292.1L234.0 292.8L235.5 293.5L237.0 294.2L238.5 295.0L240.0 295.8L241.5 296.6L243.0 297.4L244.5 298.3L246.0 299.1L247.5 300.0L249.0 300.9L250.5 301.8L252.0 302.8L253.5 303.7L255.0 304.7L256.5 305.6L258.0 306.6L259.5 307.6L261.0 308.6L262.5 309.6L264.0 310.7L265.5 311.7L267.0 312.7L268.5 313.8L270.0 314.7L271.5 315.7L273.0 316.7L274.5 317.8L276.0 318.8L277.5 320.2L279.0 321.3L280.5 322.3L282.0 323.3L283.5 324.4L285.0 325.0L286.5 326.0L288.0 327.0L289.5 327.9L291.0 328.9L292.5 330.3L294.0 331.3L295.5 332.2L297.0 333.1L298.5 334.0L300.0 334.7L301.5 335.6L303.0 336.4L304.5 337.2L306.0 338.0L307.5 338.8L309.0 339.5L310.5 340.3L312.0 341.0L313.5 341.6L315.0 342.3L316.5 342.9L318.0 343.5L319.5 344.0L321.0 344.6L322.5 344.7L324.0 345.2L325.5 345.6L327.0 346.0L328.5 346.4L330.0 347.1L331.5 347.4L333.0 347.7L334.5 348.0L336.0 348.2L337.5 347.5L339.0 347.6L340.5 347.7L342.0 347.8L343.5 347.8L345.0 347.4L346.5 347.3L348.0 347.3L349.5 347.2L351.0 347.0L352.5 347.9L354.0 347.7L355.5 347.5L357.0 347.3L358.5 347.0L360.0 346.1L361.5 345.8L363.0 345.4L364.5 345.0L366.0 344.6L367.5 343.5L369.0 343.0L370.5 342.5L372.0 341.9L373.5 341.3L375.0 341.4L376.5 340.8L378.0 340.2L379.5 339.6L381.0 338.9L382.5 338.9L384.0 338.3L385.5 337.5L387.0 336.8L388.5 336.1L390.0 334.5L391.5 333.7L393.0 332.9L394.5 332.1L396.0 331.3L397.5 331.3L399.0 330.5L400.5 329.7L402.0 328.8L403.5 328.0L405.0 326.2L406.5 325.3L408.0 324.5L409.5 323.6L411.0 322.7L412.5 321.9L414.0 321.0L415.5 320.2L417.0 319.3L418.5 318.4L420.0 318.6L421.5 317.8L423.0 317.0L424.5 316.2L426.0 315.4L427.5 316.7L429.0 315.9L430.5 315.2L432.0 314.4L433.5 313.7L435.0 309.7L436.5 309.0L438.0 308.3L439.5 307.6L441.0 307.0L442.5 305.2L444.0 304.6L445.5 304.0L447.0 303.4L448.5 302.8L450.0 304.7L451.5 304.2L453.0 303.7L454.5 303.2L456.0 302.8L457.5 301.2L459.0 300.8L460.5 300.4L462.0 300.1L463.5 299.8L465.0 300.8L466.5 300.6L468.0 300.3L469.5 300.2L471.0 300.0L472.5 297.2L474.0 297.1L475.5 297.0L477.0 296.9L478.5 296.9L480.0 300.9L481.5 301.0L483.0 301.0L484.5 301.1L486.0 301.2L487.5 299.9L489.0 300.1L490.5 300.3L492.0 300.5L493.5 300.7L495.0 300.9L496.5 301.2L498.0 301.5L499.5 301.8L501.0 302.1L502.5 301.0L504.0 301.4L505.5 301.8L507.0 302.2L508.5 302.6L510.0 306.0L511.5 306.4L513.0 306.9L514.5 307.4L516.0 307.9L517.5 308.5L519.0 309.0L520.5 309.5L522.0 310.1L523.5 310.7L525.0 311.3L526.5 311.8L528.0 312.5L529.5 313.1L531.0 313.7L532.5 314.4L534.0 315.1L535.5 315.8L537.0 316.5L538.5 317.4L540.0 317.2L540.0 322.8L538.5 323.3L537.0 322.6L535.5 322.0L534.0 321.4L532.5 320.9L531.0 320.4L529.5 319.8L528.0 319.3L526.5 318.8L525.0 318.3L523.5 317.9L522.0 317.4L520.5 316.9L519.0 316.5L517.5 316.0L516.0 314.1L514.5 313.7L513.0 313.3L511.5 312.9L510.0 312.6L508.5 310.7L507.0 310.4L505.5 310.1L504.0 309.8L502.5 309.5L501.0 312.1L499.5 311.8L498.0 311.6L496.5 311.4L495.0 311.2L493.5 311.0L492.0 310.8L490.5 310.7L489.0 310.6L487.5 310.5L486.0 307.7L484.5 307.7L483.0 307.7L481.5 307.7L480.0 307.7L478.5 307.8L477.0 307.9L475.5 308.0L474.0 308.2L472.5 308.4L471.0 308.6L469.5 308.8L468.0 309.1L466.5 309.3L465.0 309.7L463.5 308.7L462.0 309.1L460.5 309.5L459.0 309.9L457.5 310.4L456.0 310.8L454.5 311.3L453.0 311.8L451.5 312.4L450.0 313.0L448.5 315.9L447.0 316.5L445.5 317.1L444.0 317.8L442.5 318.4L441.0 319.1L439.5 319.8L438.0 320.5L436.5 321.3L435.0 322.0L433.5 322.8L432.0 323.5L430.5 324.3L429.0 325.2L427.5 326.0L426.0 325.8L424.5 326.6L423.0 327.5L421.5 328.3L420.0 329.2L418.5 332.1L417.0 333.0L415.5 333.8L414.0 334.7L412.5 335.6L411.0 337.4L409.5 338.3L408.0 339.2L406.5 340.1L405.0 340.9L403.5 338.2L402.0 339.1L400.5 340.0L399.0 340.9L397.5 341.8L396.0 344.4L394.5 345.2L393.0 346.0L391.5 346.8L390.0 347.6L388.5 348.4L387.0 349.2L385.5 350.0L384.0 350.7L382.5 351.4L381.0 352.9L379.5 353.6L378.0 354.2L376.5 354.8L375.0 355.4L373.5 356.0L372.0 356.6L370.5 357.1L369.0 357.6L367.5 358.1L366.0 359.2L364.5 359.6L363.0 360.0L361.5 360.4L360.0 360.7L358.5 359.3L357.0 359.6L355.5 359.9L354.0 360.1L352.5 360.3L351.0 361.5L349.5 361.7L348.0 361.8L346.5 361.8L345.0 361.8L343.5 361.8L342.0 361.8L340.5 361.7L339.0 361.6L337.5 361.5L336.0 360.9L334.5 360.7L333.0 360.5L331.5 360.2L330.0 359.9L328.5 359.9L327.0 359.6L325.5 359.2L324.0 358.7L322.5 358.3L321.0 357.1L319.5 356.6L318.0 356.1L316.5 355.5L315.0 354.9L313.5 354.9L312.0 354.2L310.5 353.5L309.0 352.8L307.5 352.1L306.0 351.5L304.5 350.7L303.0 349.9L301.5 349.1L300.0 348.2L298.5 346.7L297.0 345.9L295.5 345.0L294.0 344.0L292.5 343.1L291.0 342.0L289.5 341.1L288.0 340.1L286.5 339.1L285.0 338.1L283.5 337.5L282.0 336.5L280.5 335.4L279.0 334.4L277.5 333.3L276.0 332.3L274.5 331.2L273.0 330.2L271.5 329.1L270.0 328.1L268.5 326.8L267.0 325.8L265.5 324.7L264.0 323.7L262.5 322.7L261.0 321.7L259.5 320.7L258.0 319.7L256.5 318.7L255.0 317.7L253.5 316.7L252.0 315.8L250.5 314.8L249.0 313.9L247.5 313.0L246.0 312.1L244.5 311.2L243.0 310.3L241.5 309.5L240.0 308.6L238.5 307.8L237.0 307.0L235.5 306.3L234.0 305.6L232.5 304.8L231.0 304.2L229.5 303.5L228.0 302.9L226.5 302.3L225.0 301.7L223.5 301.1L222.0 300.6L220.5 300.1L219.0 299.6L217.5 299.2L216.0 298.8L214.5 298.4L213.0 298.1L211.5 297.7L210.0 297.4L208.5 297.2L207.0 297.0L205.5 296.8L204.0 296.6L202.5 296.5L201.0 296.3L199.5 296.3L198.0 296.2L196.5 296.2L195.0 296.2L193.5 296.3L192.0 296.3L190.5 296.4L189.0 296.6L187.5 296.7L186.0 296.9L184.5 297.1L183.0 297.4L181.5 297.6L180.0 297.9L178.5 298.2L177.0 298.6L175.5 298.9L174.0 299.3L172.5 299.7L171.0 300.1L169.5 300.6L168.0 301.0L166.5 301.5L165.0 302.0L163.5 302.6L162.0 303.1L160.5 303.6L159.0 304.2L157.5 304.8L156.0 305.4L154.5 306.0L153.0 306.6L151.5 307.2L150.0 307.8L148.5 308.5L147.0 309.1L145.5 309.7L144.0 310.4L142.5 311.0L141.0 311.7L139.5 312.4L138.0 313.0L136.5 313.7L135.0 314.3L133.5 315.0L132.0 315.6L130.5 316.2L129.0 316.9L127.5 317.5L126.0 318.1L124.5 318.7L123.0 319.3L121.5 319.9L120.0 320.5L118.5 321.0L117.0 321.6L115.5 322.1L114.0 322.6L112.5 323.1L111.0 323.6L109.5 324.0L108.0 324.5L106.5 324.9L105.0 325.3L103.5 325.7L102.0 326.0L100.5 326.4L99.0 326.7L97.5 327.0L96.0 327.2L94.5 327.4L93.0 327.7L91.5 327.8L90.0 328.0L88.5 328.1L87.0 328.2L85.5 328.3L84.0 328.3L82.5 328.3L81.0 328.3L79.5 328.2L78.0 328.1L76.5 328.0L75.0 327.8L73.5 327.6L72.0 327.4L70.5 327.1L69.0 326.8L67.5 326.4L66.0 325.9L64.5 325.4L63.0 324.8L61.5 324.1L60.0 322.8Z M468.4 213.7H472.2V216.3H468.4Z M532.1 289.1H536.6V292.0H532.1Z M500.5 340.3H504.8V343.2H500.5Z M406.8 336.9H407.7V338.7H406.8Z M499.8 311.2H502.7V312.6H499.8Z M375.5 81.8H377.6V83.1H375.5Z M355.8 311.4H357.4V312.5H355.8Z M449.7 336.4H453.3V338.8H449.7Z M522.9 188.9H524.4V191.9H522.9Z M524.0 108.5H525.5V110.0H524.0Z M431.6 88.6H433.8V90.8H431.6Z M519.6 280.7H524.1V282.2H519.6Z M477.3 202.9H481.3V205.5H477.3Z M483.6 82.9H485.0V85.7H483.6Z M470.8 207.8H473.4V211.8H470.8Z M481.9 325.8H485.9V328.5H481.9Z M437.1 69.1H439.3V71.3H437.1Z M476.5 351.8H481.9V353.1H476.5Z M330.8 74.2H332.3V75.3H330.8Z M465.8 145.1H467.1V148.9H465.8Z M479.9 179.4H485.4V182.1H479.9Z M339.6 131.5H340.9V132.4H339.6Z M516.8 258.3H521.2V261.3H516.8Z M315.6 64.6H316.4V65.4H315.6Z M504.5 82.5H507.4V83.9H504.5Z M484.2 291.1H489.6V293.8H484.2Z M395.3 170.7H396.1V173.2H395.3Z M484.6 326.1H487.3V327.4H484.6Z M537.0 301.3H543.0V304.3H537.0Z M409.7 278.1H410.6V280.0H409.7Z M395.9 285.1H399.2V286.7H395.9Z M450.3 353.1H452.7V356.7H450.3Z M501.6 261.3H507.3V265.6H501.6Z M446.3 184.7H449.8V187.1H446.3Z M493.9 293.8H498.1V295.2H493.9Z M474.3 277.6H477.0V278.9H474.3Z M464.7 274.6H466.0V277.2H464.7Z M471.3 330.9H475.3V333.5H471.3Z M443.7 227.1H446.1V229.4H443.7Z M495.6 215.0H499.8V217.8H495.6Z M473.5 96.8H477.5V98.1H473.5Z M516.6 355.6H518.1V360.0H516.6Z M506.7 245.9H512.5V248.8H506.7Z M462.5 264.5H466.3V267.1H462.5Z M538.1 102.7H542.6V107.2H538.1Z M473.9 310.3H476.5V311.7H473.9Z M516.8 268.2H519.7V271.1H516.8Z M447.5 252.6H449.9V255.0H447.5Z M477.5 152.5H480.2V155.2H477.5Z M353.7 172.8H355.3V173.9H353.7Z M358.2 166.1H359.9V167.2H358.2Z M360.6 254.6H361.8V256.4H360.6Z"></path>
</svg>